<svg width="320" height="220" viewBox="0 0 320 220" fill="none" xmlns="http://www.w3.org/2000/svg">
<path d="M57.8008 207.2H261.961" stroke="#263238" stroke-width="1.15942" stroke-linecap="round" stroke-linejoin="round"/>
<path d="M186.163 191.558L186.475 207.341L166.838 207.83C166.908 205.951 176.958 201.934 176.958 201.934L176.342 191.814L186.163 191.558Z" fill="#90CAF9"/>
<g opacity="0.6">
<path d="M183.021 200.93C183.207 200.983 183.368 201.101 183.474 201.262C183.58 201.424 183.624 201.619 183.597 201.81C183.553 202.002 183.437 202.168 183.273 202.276C183.11 202.385 182.911 202.426 182.717 202.391C182.515 202.335 182.341 202.206 182.229 202.029C182.116 201.851 182.074 201.639 182.11 201.432C182.178 201.237 182.32 201.075 182.504 200.982C182.689 200.888 182.902 200.87 183.1 200.93" fill="white"/>
</g>
<g opacity="0.6">
<path d="M186.475 207.341L186.383 205.753L167.59 206.8C167.59 206.8 166.71 207.205 166.838 207.816L186.475 207.341Z" fill="white"/>
</g>
<path d="M176.65 201.841C176.65 201.938 177.138 201.969 177.618 202.281C178.098 202.594 178.357 202.976 178.445 202.937C178.533 202.897 178.375 202.347 177.79 201.995C177.204 201.643 176.628 201.753 176.65 201.841Z" fill="#263238"/>
<path d="M174.613 202.743C174.613 202.836 175.014 202.99 175.348 203.386C175.682 203.782 175.788 204.213 175.885 204.204C175.982 204.195 176.03 203.654 175.599 203.17C175.168 202.686 174.613 202.651 174.613 202.743Z" fill="#263238"/>
<path d="M173.504 205.238C173.592 205.238 173.715 204.776 173.455 204.257C173.196 203.738 172.743 203.54 172.703 203.619C172.663 203.698 172.949 203.975 173.143 204.402C173.337 204.829 173.411 205.229 173.504 205.238Z" fill="#263238"/>
<path d="M176.769 199.522C176.809 199.61 177.244 199.465 177.79 199.487C178.336 199.509 178.758 199.672 178.806 199.588C178.855 199.505 178.441 199.175 177.799 199.148C177.157 199.122 176.721 199.448 176.769 199.522Z" fill="#263238"/>
<path d="M177.16 197.182C177.484 197.26 177.823 197.249 178.141 197.151C178.706 197.038 179.242 196.815 179.721 196.495C179.831 196.433 179.929 196.353 180.011 196.258C180.073 196.188 180.109 196.1 180.115 196.008C180.121 195.915 180.095 195.823 180.042 195.747C179.991 195.679 179.925 195.624 179.848 195.588C179.771 195.551 179.687 195.533 179.602 195.536C179.478 195.538 179.355 195.559 179.237 195.598C179.028 195.653 178.825 195.728 178.63 195.822C178.306 195.982 178.01 196.192 177.75 196.442C177.31 196.882 177.16 197.234 177.191 197.252C177.222 197.27 177.451 196.979 177.908 196.618C178.177 196.408 178.473 196.234 178.788 196.104C178.969 196.025 179.156 195.962 179.347 195.914C179.554 195.853 179.734 195.848 179.787 195.941C179.84 196.033 179.787 195.989 179.787 196.051C179.723 196.119 179.651 196.178 179.571 196.227C179.407 196.338 179.236 196.441 179.061 196.535C178.76 196.694 178.445 196.824 178.119 196.922C177.793 196.984 177.473 197.071 177.16 197.182Z" fill="#263238"/>
<path d="M177.305 197.314C177.485 197.029 177.567 196.694 177.539 196.359C177.553 195.774 177.4 195.197 177.099 194.696C177.043 194.567 176.955 194.455 176.843 194.371C176.731 194.287 176.599 194.234 176.461 194.216C176.373 194.22 176.289 194.248 176.217 194.298C176.146 194.348 176.09 194.417 176.056 194.498C176.009 194.615 175.978 194.738 175.963 194.863C175.93 195.082 175.93 195.304 175.963 195.523C176.024 195.89 176.175 196.236 176.403 196.53C176.799 197.028 177.204 197.133 177.209 197.102C177.213 197.072 176.901 196.874 176.597 196.394C176.422 196.116 176.308 195.804 176.263 195.479C176.236 195.289 176.236 195.097 176.263 194.907C176.289 194.7 176.364 194.528 176.439 194.55C176.513 194.572 176.707 194.696 176.791 194.863C176.894 195.03 176.981 195.207 177.05 195.391C177.168 195.703 177.24 196.031 177.266 196.363C177.345 196.94 177.253 197.3 177.305 197.314Z" fill="#263238"/>
<path d="M202.17 191.246L202.482 207.029L182.85 207.522C182.916 205.643 192.97 201.621 192.97 201.621L192.354 191.501L202.17 191.246Z" fill="#90CAF9"/>
<g opacity="0.6">
<path d="M199.028 200.64C199.212 200.696 199.37 200.814 199.475 200.975C199.58 201.137 199.624 201.329 199.6 201.52C199.555 201.711 199.439 201.877 199.275 201.985C199.112 202.093 198.913 202.134 198.72 202.101C198.518 202.046 198.344 201.917 198.232 201.741C198.12 201.564 198.077 201.352 198.113 201.146C198.179 200.949 198.32 200.787 198.505 200.693C198.691 200.599 198.905 200.582 199.103 200.644" fill="white"/>
</g>
<g opacity="0.6">
<path d="M202.482 207.029L202.39 205.44L183.597 206.505C183.597 206.505 182.717 206.906 182.849 207.522L202.482 207.029Z" fill="white"/>
</g>
<path d="M192.657 201.52C192.657 201.617 193.145 201.648 193.625 201.96C194.104 202.272 194.364 202.651 194.452 202.611C194.54 202.572 194.382 202.022 193.796 201.674C193.211 201.326 192.635 201.441 192.657 201.52Z" fill="#263238"/>
<path d="M190.62 202.435C190.62 202.528 191.021 202.682 191.355 203.078C191.689 203.474 191.795 203.9 191.892 203.896C191.989 203.892 192.037 203.346 191.61 202.858C191.183 202.369 190.62 202.343 190.62 202.435Z" fill="#263238"/>
<path d="M189.512 204.926C189.6 204.948 189.723 204.464 189.463 203.944C189.204 203.425 188.75 203.227 188.711 203.306C188.671 203.386 188.957 203.663 189.151 204.094C189.344 204.525 189.419 204.921 189.512 204.926Z" fill="#263238"/>
<path d="M192.776 199.21C192.815 199.298 193.251 199.157 193.797 199.179C194.342 199.201 194.765 199.364 194.813 199.28C194.861 199.197 194.448 198.84 193.805 198.84C193.163 198.84 192.723 199.14 192.776 199.21Z" fill="#263238"/>
<path d="M193.186 196.869C193.509 196.951 193.848 196.942 194.167 196.843C194.52 196.77 194.862 196.655 195.188 196.5C195.38 196.407 195.567 196.303 195.746 196.187C195.855 196.122 195.953 196.04 196.037 195.945C196.098 195.876 196.135 195.788 196.14 195.695C196.146 195.603 196.12 195.511 196.068 195.435C196.016 195.368 195.949 195.314 195.873 195.278C195.796 195.242 195.712 195.225 195.628 195.228C195.504 195.231 195.381 195.25 195.262 195.285C195.053 195.342 194.85 195.419 194.655 195.514C194.332 195.673 194.035 195.881 193.775 196.13C193.335 196.57 193.186 196.926 193.216 196.944C193.247 196.962 193.476 196.667 193.934 196.306C194.203 196.097 194.499 195.924 194.814 195.791C194.995 195.715 195.182 195.652 195.372 195.602C195.579 195.545 195.76 195.536 195.812 195.628C195.865 195.721 195.812 195.677 195.812 195.738C195.749 195.806 195.676 195.866 195.597 195.914C195.433 196.027 195.263 196.13 195.086 196.222C194.785 196.381 194.47 196.512 194.145 196.614C193.819 196.676 193.499 196.761 193.186 196.869Z" fill="#263238"/>
<path d="M193.313 197.006C193.492 196.721 193.573 196.386 193.546 196.051C193.558 195.465 193.405 194.887 193.106 194.383C193.05 194.255 192.961 194.144 192.85 194.06C192.738 193.976 192.606 193.922 192.468 193.904C192.379 193.905 192.294 193.933 192.221 193.984C192.149 194.035 192.094 194.107 192.063 194.19C192.016 194.305 191.985 194.426 191.971 194.55C191.939 194.771 191.939 194.994 191.971 195.215C192.032 195.58 192.183 195.925 192.411 196.218C192.807 196.72 193.211 196.821 193.22 196.79C193.229 196.759 192.912 196.566 192.604 196.082C192.429 195.804 192.315 195.492 192.27 195.166C192.243 194.978 192.243 194.787 192.27 194.599C192.296 194.388 192.371 194.216 192.45 194.238C192.529 194.26 192.714 194.388 192.802 194.55C192.901 194.719 192.987 194.896 193.057 195.078C193.175 195.392 193.247 195.721 193.273 196.055C193.352 196.632 193.26 196.992 193.313 197.006Z" fill="#263238"/>
<path d="M167.041 113.991C166.851 113.991 167.921 133.791 168.748 138.67C170.019 146.344 174.252 198.845 174.252 198.845H187.118L187.382 125.805L189.718 153.921L190.598 198.994L203.173 198.66L204.493 150.845C204.097 147.277 205.167 114.457 205.167 114.457L167.041 113.991Z" fill="#263238"/>
<path d="M172.862 40.1016C171.344 39.3976 170.394 37.8444 169.835 36.2692C169.276 34.694 169.021 33 168.4 31.4644C167.96 30.3072 168.444 28.4636 167.406 27.7728C166.108 26.9148 166.121 24.6268 166.623 23.4872C167.168 22.2464 168.651 21.3224 168.752 20.9308C169.016 19.8968 168.119 18.7792 168.453 17.7672C169.236 15.3868 171.177 15.6992 171.177 15.6992C172.057 14.63 173.254 13.2132 175.194 12.7116C177.293 12.1704 180.395 11.7656 182.265 12.8656C184.135 13.9656 185.512 14.7048 186.115 16.7904" fill="#263238"/>
<path d="M190.163 45.232L185.763 52.7912L179.682 58.8632L176.113 53.9616V49.0204V44.88C176.113 44.88 170.618 44.1232 170.455 38.6408C170.376 36.0008 170.657 30.5272 170.974 25.586C171.136 23.0227 172.258 20.6143 174.115 18.8402C175.972 17.0661 178.429 16.0562 180.997 16.0116H181.525C187.245 16.2492 190.229 21.23 189.833 26.9324L190.193 45.2408" fill="#CE947A"/>
<path d="M172.549 29.6428C172.552 29.8468 172.634 30.0417 172.778 30.1867C172.921 30.3318 173.115 30.416 173.319 30.4216C173.419 30.4275 173.519 30.4135 173.613 30.3802C173.708 30.347 173.794 30.2953 173.869 30.2281C173.943 30.1609 174.003 30.0796 174.045 29.9889C174.087 29.8982 174.111 29.8 174.115 29.7C174.112 29.496 174.03 29.3011 173.887 29.1561C173.743 29.011 173.549 28.9268 173.345 28.9212C173.245 28.9153 173.145 28.9293 173.051 28.9626C172.956 28.9958 172.87 29.0475 172.795 29.1147C172.721 29.1819 172.661 29.2632 172.619 29.3539C172.577 29.4446 172.553 29.5428 172.549 29.6428Z" fill="#263238"/>
<path d="M172.078 27.9576C172.179 28.0588 172.765 27.61 173.605 27.5968C174.445 27.5836 175.075 27.9972 175.163 27.8916C175.251 27.786 175.105 27.6628 174.833 27.4516C174.464 27.2029 174.027 27.0753 173.583 27.0864C173.143 27.1003 172.719 27.2544 172.373 27.5264C172.118 27.72 172.03 27.9136 172.078 27.9576Z" fill="#263238"/>
<path d="M180.465 29.4536C180.466 29.6575 180.547 29.853 180.69 29.9985C180.832 30.1439 181.027 30.2278 181.23 30.2324C181.33 30.2383 181.43 30.2243 181.525 30.191C181.619 30.1578 181.706 30.1061 181.78 30.0389C181.854 29.9717 181.914 29.8904 181.957 29.7997C181.999 29.709 182.023 29.6108 182.027 29.5108C182.025 29.3065 181.943 29.111 181.799 28.9657C181.656 28.8203 181.461 28.7366 181.257 28.732C181.157 28.7261 181.057 28.7402 180.963 28.7734C180.869 28.8067 180.782 28.8585 180.709 28.9258C180.635 28.993 180.575 29.0744 180.533 29.165C180.491 29.2557 180.468 29.3538 180.465 29.4536Z" fill="#263238"/>
<path d="M180.474 27.5792C180.562 27.6892 181.191 27.3064 182.031 27.3856C182.872 27.4648 183.444 27.94 183.545 27.8256C183.646 27.7112 183.514 27.588 183.263 27.3856C182.924 27.0985 182.504 26.9246 182.062 26.8884C181.625 26.8467 181.185 26.9453 180.808 27.17C180.535 27.3504 180.43 27.5264 180.474 27.5792Z" fill="#263238"/>
<path d="M177.5 34.562C177.053 34.4308 176.592 34.3554 176.127 34.3376C175.911 34.3376 175.709 34.2804 175.687 34.1352C175.667 33.9127 175.713 33.6893 175.819 33.4928C176.012 32.9692 176.215 32.4192 176.43 31.8472C177.271 29.4976 177.878 27.5704 177.786 27.5352C177.693 27.5 176.928 29.3788 176.083 31.7284L175.502 33.3828C175.372 33.6458 175.336 33.9457 175.401 34.232C175.434 34.3072 175.483 34.3739 175.546 34.4273C175.608 34.4806 175.682 34.5191 175.762 34.54C175.881 34.5702 176.004 34.585 176.127 34.584C176.583 34.6344 177.045 34.627 177.5 34.562Z" fill="#263238"/>
<path d="M179.99 35.1032C179.853 35.1032 179.866 36.014 179.11 36.674C178.353 37.334 177.35 37.2548 177.35 37.3824C177.35 37.4396 177.57 37.554 177.979 37.5584C178.515 37.5582 179.034 37.368 179.444 37.0216C179.837 36.6877 180.084 36.2145 180.135 35.7016C180.161 35.3232 180.051 35.0944 179.99 35.1032Z" fill="#263238"/>
<path d="M180.526 24.8028C180.596 25.036 181.441 24.9832 182.422 25.168C183.404 25.3528 184.182 25.6784 184.323 25.4804C184.389 25.388 184.266 25.1636 183.958 24.9172C183.549 24.6139 183.074 24.4118 182.572 24.3276C182.072 24.2312 181.555 24.2568 181.067 24.4024C180.68 24.5256 180.5 24.6928 180.526 24.8028Z" fill="#263238"/>
<path d="M172.435 25.8016C172.585 25.9908 173.165 25.8016 173.861 25.762C174.556 25.7224 175.154 25.8676 175.286 25.6652C175.343 25.5684 175.247 25.3748 174.987 25.1988C174.636 24.9872 174.231 24.8847 173.822 24.9042C173.413 24.9238 173.019 25.0647 172.69 25.3088C172.444 25.52 172.369 25.7092 172.435 25.8016Z" fill="#263238"/>
<path d="M185.705 16.3988C185.707 17.0083 185.575 17.6108 185.318 18.1635C185.061 18.7162 184.686 19.2055 184.218 19.5966C183.751 19.9876 183.203 20.2709 182.613 20.4262C182.024 20.5815 181.408 20.6051 180.808 20.4952C179.88 20.328 178.863 19.8572 178.062 20.3544C177.262 20.8516 177.182 22.1452 176.434 22.7964C175.365 23.7248 173.662 22.8536 172.303 23.2364C171.256 23.5488 170.6 24.5564 169.905 25.3924C169.21 26.2284 168.145 27.038 167.115 26.7124C167.146 25.7669 167.285 24.828 167.529 23.914C167.782 22.9924 168.344 22.1859 169.122 21.6304C169.575 21.3936 170.015 21.1336 170.442 20.8516C171.322 20.1476 171.515 18.9244 172.052 17.9432C172.406 17.3125 172.905 16.7753 173.508 16.3759C174.111 15.9765 174.8 15.7264 175.519 15.6464C176.716 15.5232 177.944 15.8796 179.11 15.5892C179.968 15.3692 180.72 14.8104 181.591 14.6476C183.29 14.322 184.865 15.5276 186.097 16.7552" fill="#263238"/>
<path d="M180.276 18.8144C181.037 18.5944 182.595 18.1016 182.999 17.4416C183.879 16.0072 185.45 15.0304 187.048 15.1184C187.874 15.1824 188.657 15.5125 189.279 16.059C189.902 16.6056 190.331 17.3392 190.502 18.15C191.493 18.1861 192.457 18.4887 193.292 19.026C194.127 19.5633 194.801 20.3155 195.245 21.2036C195.701 22.1355 195.923 23.1643 195.893 24.2014C195.863 25.2384 195.582 26.2527 195.073 27.1568C194.744 27.5838 194.53 28.0884 194.453 28.622C194.453 29.2996 194.945 29.832 195.297 30.382C196.257 31.9044 196.177 33.9988 195.443 35.662C194.708 37.3252 194.175 37.9016 193.119 38.236C191.047 38.8828 193.119 43.0496 189.661 43.0496L188.966 30.7296C188.866 30.7859 188.757 30.826 188.645 30.8484C186.603 31.3104 186.335 27.3284 186.792 26.1888C186.023 25.56 185.336 24.8371 184.746 24.0372C184.183 23.2056 183.686 20.9572 183.805 19.9144C183.07 19.9408 179.941 18.92 180.276 18.8144Z" fill="#263238"/>
<path d="M188.68 30.8C188.772 30.756 192.429 29.6208 192.372 33.3696C192.314 37.1184 188.561 36.2912 188.557 36.1856C188.552 36.08 188.68 30.8 188.68 30.8Z" fill="#CE947A"/>
<path d="M189.722 34.76C189.722 34.76 189.788 34.8084 189.898 34.8612C190.055 34.9255 190.23 34.9255 190.387 34.8612C190.787 34.7204 191.13 34.0956 191.157 33.4224C191.17 33.1015 191.113 32.7817 190.989 32.4852C190.955 32.3678 190.893 32.2603 190.809 32.1715C190.725 32.0827 190.621 32.0153 190.505 31.9748C190.43 31.954 190.35 31.9598 190.279 31.991C190.208 32.0223 190.149 32.0771 190.114 32.1464C190.065 32.252 190.087 32.3268 190.065 32.3312C190.043 32.3356 189.986 32.2696 190.017 32.1156C190.042 32.0232 190.096 31.9413 190.171 31.8824C190.275 31.8056 190.404 31.7724 190.532 31.79C190.686 31.8228 190.828 31.8947 190.946 31.9988C191.064 32.1028 191.153 32.2355 191.205 32.384C191.36 32.7104 191.433 33.0701 191.416 33.4312C191.381 34.188 190.976 34.8876 190.439 35.0372C190.339 35.065 190.233 35.07 190.13 35.0517C190.028 35.0334 189.93 34.9924 189.845 34.9316C189.731 34.8656 189.709 34.782 189.722 34.76Z" fill="#A56349"/>
<path d="M194.901 36.7752C194.673 37.0236 194.501 37.3188 194.398 37.6404C194.295 37.962 194.263 38.3022 194.305 38.6373C194.347 38.9723 194.461 39.2942 194.64 39.5806C194.819 39.8669 195.059 40.1108 195.341 40.2952C195.188 40.4337 195.007 40.5398 194.812 40.6071C194.616 40.6744 194.408 40.7015 194.202 40.6868C194.057 41.1576 194.721 41.4832 194.857 41.9584C194.889 42.104 194.881 42.2552 194.834 42.3967C194.788 42.5382 194.705 42.6648 194.593 42.7636C194.371 42.9631 194.108 43.1131 193.823 43.2036C192.99 43.5023 192.116 43.67 191.232 43.7008C190.976 43.7363 190.716 43.7154 190.47 43.6393C190.224 43.5633 189.997 43.4341 189.806 43.2608C189.567 42.9013 189.456 42.4723 189.489 42.042L189.397 38.8432C189.355 38.5296 189.414 38.2107 189.564 37.9324C189.805 37.6625 190.134 37.4877 190.493 37.4396L195.038 36.278" fill="#263238"/>
<path d="M206.43 109.872C205.844 106.44 202.329 89.87 202.329 89.87L204.502 50.27C203.499 49.5968 190.154 44.7568 190.154 44.7568C190.154 44.7568 188.099 50.8552 181.57 52.1928C175.04 53.5304 176.078 48.642 176.078 48.642C176.078 48.642 163.318 55.4576 162.575 55.9592C161.831 56.4608 158.654 69.2648 158.654 69.2648L156.252 77.55L166.341 79.8952C166.341 79.8952 166.592 99.6468 166.341 101.068C166.09 102.489 165.584 113.96 165.584 113.96L205.184 114.462C205.184 114.462 207.015 113.304 206.43 109.872Z" fill="#90CAF9"/>
<path d="M204.502 50.2832C204.502 50.2832 206.944 52.6768 207.763 55.044C208.581 57.4112 211.111 72.9344 211.111 72.9344C211.111 72.9344 197.225 74.8968 197.225 74.6504C197.225 74.404 198.448 65.7448 198.857 63.052C199.266 60.3592 204.502 50.2832 204.502 50.2832Z" fill="#90CAF9"/>
<path d="M174.696 69.366L173.777 71.5044H173.2L172.285 69.366H172.941L173.522 70.7608L174.116 69.366H174.696Z" fill="white"/>
<path d="M174.683 70.4352C174.667 70.1964 174.724 69.9584 174.845 69.7521C174.966 69.5458 175.147 69.3807 175.363 69.2783C175.579 69.1759 175.821 69.1409 176.058 69.178C176.294 69.215 176.514 69.3223 176.688 69.4859C176.863 69.6495 176.984 69.8619 177.037 70.0954C177.089 70.3289 177.07 70.5727 176.982 70.7952C176.894 71.0176 176.74 71.2084 176.542 71.3428C176.344 71.4771 176.111 71.5488 175.871 71.5484C175.719 71.558 175.567 71.5364 175.423 71.4848C175.279 71.4332 175.148 71.3528 175.037 71.2485C174.925 71.1443 174.837 71.0183 174.776 70.8784C174.715 70.7385 174.684 70.5877 174.683 70.4352ZM176.443 70.4352C176.437 70.3216 176.398 70.2124 176.33 70.1209C176.263 70.0294 176.17 69.9598 176.063 69.9207C175.956 69.8816 175.841 69.8746 175.73 69.9007C175.619 69.9269 175.519 69.9849 175.441 70.0677C175.363 70.1504 175.311 70.2542 175.291 70.3663C175.272 70.4783 175.285 70.5936 175.331 70.6978C175.376 70.8021 175.451 70.8907 175.546 70.9528C175.642 71.0148 175.753 71.0475 175.867 71.0468C175.946 71.0482 176.025 71.0331 176.098 71.0025C176.171 70.9718 176.237 70.9263 176.292 70.8688C176.346 70.8113 176.389 70.743 176.415 70.6684C176.442 70.5937 176.453 70.5143 176.448 70.4352H176.443Z" fill="white"/>
<path d="M177.376 69.366H177.979V71.0248H179V71.5044H177.376V69.366Z" fill="white"/>
<path d="M179.197 70.554V69.366H179.8V70.532C179.8 70.9016 179.954 71.0468 180.209 71.0468C180.464 71.0468 180.61 70.9016 180.61 70.532V69.366H181.208V70.554C181.191 70.8092 181.078 71.0483 180.891 71.2231C180.705 71.3978 180.458 71.495 180.203 71.495C179.947 71.495 179.701 71.3978 179.514 71.2231C179.327 71.0483 179.214 70.8092 179.197 70.554Z" fill="white"/>
<path d="M183.65 69.366V71.5044H183.153L182.207 70.3648V71.5044H181.613V69.366H182.11L183.056 70.5056V69.366H183.65Z" fill="white"/>
<path d="M184.531 69.8456H183.875V69.366H185.789V69.8456H185.138V71.5044H184.531V69.8456Z" fill="white"/>
<path d="M187.721 71.038V71.5044H186.005V69.366H187.681V69.8324H186.603V70.1932H187.554V70.6332H186.603V71.0248L187.721 71.038Z" fill="white"/>
<path d="M189.784 71.038V71.5044H188.068V69.366H189.745V69.8324H188.667V70.1932H189.617V70.6332H188.667V71.0248L189.784 71.038Z" fill="white"/>
<path d="M191.051 70.9368H190.721V71.5044H190.118V69.366H191.095C191.68 69.366 192.045 69.6696 192.045 70.158C192.05 70.299 192.013 70.4382 191.939 70.558C191.864 70.6779 191.756 70.7729 191.627 70.8312L192.089 71.5044H191.438L191.051 70.9368ZM191.051 69.8412H190.712V70.4704H191.051C191.302 70.4704 191.425 70.3516 191.425 70.158C191.425 69.9644 191.311 69.8412 191.06 69.8412H191.051Z" fill="white"/>
<path d="M166.376 86.4864C166.353 86.4169 166.341 86.3441 166.341 86.2708C166.341 86.0992 166.306 85.888 166.279 85.6372C166.24 85.0916 166.196 84.3172 166.165 83.314C166.099 81.3472 166.077 78.6368 166.099 75.636C166.121 72.6352 166.174 69.916 166.231 67.9624C166.262 67.0076 166.293 66.2024 166.31 65.6392C166.31 65.384 166.337 65.1772 166.345 65.0056C166.345 64.9312 166.356 64.8572 166.376 64.7856C166.387 64.8586 166.387 64.9326 166.376 65.0056C166.376 65.1772 166.376 65.3884 166.376 65.6392C166.376 66.2244 166.376 67.012 166.376 67.9668C166.376 69.96 166.337 72.6572 166.31 75.6404C166.284 78.6236 166.288 81.3604 166.31 83.3096C166.31 84.2908 166.337 85.0696 166.354 85.6328C166.354 85.888 166.354 86.0728 166.354 86.2664C166.371 86.3384 166.379 86.4124 166.376 86.4864Z" fill="#263238"/>
<path d="M198.479 60.6628C198.501 60.8337 198.501 61.0067 198.479 61.1776C198.479 61.5604 198.479 62.0268 198.457 62.5812C198.457 63.822 198.43 65.4324 198.413 67.2188C198.395 69.0052 198.364 70.6684 198.303 71.8564C198.272 72.4504 198.241 72.93 198.206 73.26C198.198 73.4322 198.173 73.6031 198.131 73.7704C198.109 73.5995 198.109 73.4265 198.131 73.2556C198.131 72.8728 198.131 72.4064 198.131 71.852C198.131 70.6112 198.158 69.0008 198.175 67.2144C198.193 65.428 198.228 63.7648 198.285 62.5768C198.316 61.9828 198.351 61.5032 198.382 61.1732C198.397 61.0003 198.43 60.8293 198.479 60.6628Z" fill="#263238"/>
<path d="M204.084 50.6C202.17 51.2718 200.499 52.497 199.283 54.12C199.384 53.8399 199.533 53.5794 199.723 53.35C200.161 52.7694 200.683 52.2577 201.272 51.832C201.858 51.4026 202.505 51.0616 203.19 50.82C203.472 50.6933 203.775 50.6187 204.084 50.6Z" fill="#263238"/>
<path d="M165.641 60.3944C165.584 60.4296 165.003 59.4264 164.145 58.2956C163.287 57.1648 162.491 56.32 162.539 56.2716C163.866 57.3936 164.92 58.8036 165.619 60.3944H165.641Z" fill="#263238"/>
<path d="M189.942 85.2236C189.902 85.2956 189.855 85.3634 189.801 85.426C189.687 85.5712 189.546 85.756 189.361 85.976C188.987 86.4556 188.424 87.1332 187.711 87.9516C185.849 90.0886 183.874 92.1243 181.793 94.05C179.713 95.9737 177.532 97.7861 175.259 99.4796C174.379 100.126 173.667 100.637 173.161 100.971L172.575 101.358C172.51 101.408 172.439 101.449 172.364 101.482C172.42 101.423 172.482 101.369 172.549 101.323L173.108 100.883C173.601 100.522 174.3 100.003 175.163 99.33C176.879 98.01 179.206 96.1136 181.639 93.8652C184.073 91.6168 186.136 89.4432 187.593 87.8284C188.319 87.0232 188.913 86.3632 189.295 85.9012L189.735 85.3776C189.876 85.2764 189.92 85.2192 189.942 85.2236Z" fill="#263238"/>
<path d="M206.671 135.96L211.92 119.887C212.703 117.484 213.561 114.968 215.44 113.287C216.536 112.301 218.203 111.659 219.479 112.407C219.897 112.688 220.24 113.066 220.479 113.509C220.718 113.952 220.846 114.447 220.852 114.95C220.859 115.956 220.693 116.956 220.364 117.907C218.252 125.224 215.682 132.396 213.011 139.528L213.284 139.036" fill="#90CAF9"/>
<path d="M213.68 132.282C213.68 132.352 212.848 132.172 211.92 131.771C210.992 131.371 210.283 130.922 210.323 130.856C210.362 130.79 211.102 131.129 212.026 131.516C212.95 131.903 213.711 132.207 213.68 132.282Z" fill="#263238"/>
<path d="M215.441 128.401C215.41 128.471 214.561 128.124 213.483 127.701C212.405 127.279 211.556 126.931 211.578 126.856C211.6 126.782 212.51 127.015 213.584 127.446C214.658 127.877 215.441 128.33 215.441 128.401Z" fill="#263238"/>
<path d="M217.051 125.193C217.007 125.259 216.171 124.722 215.049 124.243C213.927 123.763 212.972 123.517 212.989 123.433C213.007 123.35 214.015 123.49 215.159 123.988C216.303 124.485 217.095 125.136 217.051 125.193Z" fill="#263238"/>
<path d="M218.08 121.15C218.028 121.211 217.306 120.617 216.294 120.102C215.282 119.588 214.389 119.337 214.407 119.258C214.424 119.178 215.375 119.315 216.422 119.856C217.469 120.397 218.129 121.101 218.08 121.15Z" fill="#263238"/>
<path d="M206.565 122.214H204.999V125.316H206.565V122.214Z" fill="#263238"/>
<path d="M204.814 131.371V124.898H206.724V130.297C206.724 130.297 208.735 130.354 208.986 131.239C209.536 133.184 209.294 137.557 209.294 137.557L204.814 131.371Z" fill="#455A64"/>
<path d="M221.336 148.57C220.795 145.319 219.963 142.102 219.805 138.811C219.699 136.554 219.915 134.279 219.633 132.035C219.295 129.334 218.252 126.777 217.218 124.26C216.549 122.628 215.819 120.916 214.424 119.83C213.579 119.196 212.558 118.841 211.502 118.813C209.584 118.026 204.321 117.801 202.658 121.33C201.778 123.204 201.673 125.338 201.167 127.354C200.489 130.064 200.977 130.957 200.089 133.606C198.201 139.269 195.337 146.296 196.173 152.209C196.335 153.358 198.249 155.25 198.901 156.209C199.838 157.595 201.541 158.215 203.195 158.567C207.868 159.545 212.73 159.025 217.09 157.08C218.648 156.38 220.201 155.43 220.989 153.916C221.825 152.306 221.635 150.366 221.336 148.57ZM216.347 130.31C215.467 131.05 214.182 130.689 213.042 130.632C211.674 130.561 210.336 131.006 208.985 131.239C207.635 131.472 206.125 131.463 205.025 130.627C204.221 129.943 203.716 128.972 203.617 127.921C203.523 126.881 203.581 125.833 203.789 124.81C203.882 124.011 204.086 123.229 204.396 122.487C204.711 121.737 205.299 121.135 206.042 120.802C206.922 120.362 210.099 120.072 211.322 119.887C212.409 120.433 213.355 121.223 214.085 122.197C215.063 123.552 215.855 125.032 216.439 126.597C216.725 127.196 216.911 127.838 216.989 128.498C217.029 128.829 216.992 129.165 216.881 129.479C216.769 129.794 216.586 130.078 216.347 130.31Z" fill="#FAFAFA"/>
<path d="M216.347 130.31C216.562 130.092 216.726 129.829 216.827 129.54C216.942 129.195 216.983 128.829 216.946 128.467C216.885 127.979 216.754 127.501 216.558 127.05C216.073 125.816 215.501 124.617 214.847 123.464C214.026 121.981 212.788 120.771 211.287 119.984H211.349L208.775 120.322C208.335 120.384 207.895 120.454 207.428 120.538C206.976 120.609 206.534 120.73 206.108 120.899C205.41 121.212 204.853 121.773 204.546 122.474C204.271 123.101 204.083 123.763 203.988 124.441C203.878 125.114 203.768 125.761 203.724 126.43C203.669 127.068 203.705 127.711 203.829 128.339C203.954 128.935 204.208 129.497 204.573 129.985C204.929 130.441 205.404 130.789 205.946 130.992C206.464 131.176 207.011 131.267 207.56 131.261C208.558 131.221 209.547 131.074 210.513 130.821C211.325 130.624 212.159 130.531 212.994 130.544C213.729 130.588 214.35 130.702 214.86 130.702C215.252 130.721 215.643 130.651 216.004 130.495C216.246 130.376 216.352 130.28 216.36 130.288C216.263 130.389 216.15 130.474 216.026 130.539C215.663 130.714 215.263 130.8 214.86 130.79C214.341 130.79 213.712 130.702 212.99 130.671C212.166 130.673 211.346 130.777 210.548 130.979C209.57 131.236 208.566 131.383 207.556 131.419C206.984 131.431 206.414 131.338 205.875 131.146C205.297 130.938 204.789 130.57 204.41 130.086C203.656 129.009 203.332 127.689 203.499 126.386C203.543 125.717 203.653 125.066 203.763 124.37C203.863 123.673 204.057 122.992 204.34 122.346C204.67 121.59 205.273 120.985 206.029 120.652C206.476 120.476 206.941 120.35 207.415 120.278C207.855 120.195 208.322 120.124 208.77 120.063L211.34 119.733H211.375H211.406C212.94 120.542 214.199 121.789 215.023 123.314C215.675 124.48 216.237 125.693 216.704 126.944C216.897 127.409 217.022 127.9 217.073 128.401C217.103 128.776 217.051 129.153 216.919 129.505C216.836 129.725 216.712 129.926 216.554 130.099C216.497 130.18 216.427 130.252 216.347 130.31Z" fill="#263238"/>
<path d="M221.336 148.57C221.336 148.57 221.424 148.944 221.517 149.67C221.579 150.118 221.614 150.569 221.622 151.021C221.64 151.64 221.576 152.258 221.433 152.86C221.25 153.62 220.886 154.325 220.373 154.915C219.756 155.605 219.022 156.178 218.204 156.609C216.216 157.652 214.079 158.381 211.868 158.77C209.186 159.256 206.44 159.256 203.758 158.77C203.021 158.649 202.295 158.465 201.589 158.22C200.849 157.973 200.162 157.591 199.561 157.093C199.26 156.835 198.994 156.539 198.769 156.213C198.544 155.896 198.289 155.593 198.034 155.285C197.498 154.671 197.001 154.025 196.547 153.349C196.305 152.996 196.14 152.595 196.063 152.174C196.023 151.756 195.962 151.338 195.948 150.916C195.906 150.062 195.921 149.206 195.992 148.355C196.153 146.603 196.459 144.868 196.908 143.167C197.348 141.434 197.898 139.696 198.487 137.949C198.786 137.069 199.09 136.189 199.394 135.309C199.697 134.429 200.023 133.549 200.274 132.634C200.486 131.711 200.616 130.772 200.661 129.826C200.741 128.885 200.902 127.951 201.14 127.037C201.558 125.233 201.704 123.367 202.408 121.664C202.492 121.452 202.592 121.246 202.707 121.048C202.813 120.845 202.938 120.652 203.081 120.472C203.355 120.108 203.681 119.786 204.049 119.517C204.779 119.001 205.607 118.64 206.482 118.457C207.33 118.271 208.198 118.2 209.065 118.246C209.915 118.276 210.755 118.438 211.555 118.725H211.621V118.8L211.52 118.694C212.758 118.723 213.944 119.201 214.855 120.041C215.68 120.866 216.332 121.847 216.774 122.927C217.642 124.881 218.402 126.882 219.048 128.92C219.333 129.86 219.547 130.821 219.686 131.793C219.803 132.702 219.86 133.618 219.858 134.534C219.858 136.294 219.796 137.914 219.906 139.374C220.006 140.679 220.172 141.977 220.404 143.264C220.597 144.39 220.782 145.354 220.927 146.137C221.072 146.92 221.178 147.519 221.248 147.928C221.279 148.126 221.301 148.28 221.319 148.39C221.336 148.5 221.319 148.548 221.319 148.548C221.319 148.548 221.319 148.496 221.284 148.394C221.248 148.293 221.231 148.13 221.196 147.932C221.112 147.519 220.998 146.92 220.844 146.146C220.69 145.372 220.492 144.408 220.285 143.282C220.045 141.992 219.87 140.691 219.761 139.383C219.642 137.914 219.708 136.303 219.691 134.543C219.685 133.634 219.622 132.726 219.502 131.824C219.361 130.86 219.148 129.909 218.864 128.977C218.206 126.948 217.439 124.957 216.567 123.011C216.132 121.956 215.492 120.999 214.684 120.195C213.809 119.392 212.672 118.936 211.485 118.91H211.384V118.8L211.45 118.897C210.67 118.627 209.854 118.478 209.03 118.457C208.182 118.414 207.333 118.483 206.504 118.664C205.658 118.84 204.858 119.191 204.154 119.693C203.803 119.948 203.492 120.254 203.23 120.6C203.096 120.771 202.978 120.955 202.878 121.15C202.768 121.342 202.671 121.542 202.588 121.748C201.906 123.402 201.756 125.268 201.338 127.081C201.1 127.985 200.941 128.908 200.863 129.84C200.817 130.797 200.686 131.748 200.472 132.682C200.225 133.61 199.895 134.49 199.592 135.379C199.288 136.268 198.989 137.139 198.685 138.019C198.096 139.779 197.55 141.495 197.11 143.224C196.661 144.912 196.353 146.634 196.19 148.372C196.12 149.214 196.103 150.059 196.142 150.902C196.142 151.32 196.221 151.734 196.256 152.143C196.322 152.535 196.472 152.907 196.696 153.234C197.144 153.904 197.633 154.545 198.162 155.153C198.417 155.465 198.672 155.769 198.905 156.094C199.117 156.42 199.371 156.717 199.662 156.974C200.244 157.455 200.909 157.825 201.624 158.066C202.321 158.307 203.036 158.491 203.763 158.616C206.42 159.109 209.144 159.121 211.806 158.651C214.004 158.274 216.131 157.56 218.111 156.534C218.919 156.114 219.648 155.556 220.263 154.884C220.767 154.308 221.128 153.621 221.314 152.878C221.546 151.84 221.589 150.768 221.442 149.714C221.398 149.358 221.363 149.085 221.341 148.892C221.319 148.698 221.336 148.57 221.336 148.57Z" fill="#263238"/>
<path d="M216.347 130.31C216.555 130.089 216.715 129.827 216.817 129.54C216.933 129.195 216.973 128.829 216.936 128.467C216.876 127.979 216.744 127.503 216.545 127.054C216.06 125.821 215.486 124.624 214.829 123.473C214.01 121.992 212.774 120.784 211.273 120.001H211.348L208.774 120.34C208.334 120.406 207.894 120.472 207.432 120.556C206.981 120.627 206.538 120.747 206.112 120.912C205.421 121.225 204.869 121.783 204.563 122.478C204.289 123.104 204.103 123.764 204.009 124.441C203.895 125.11 203.789 125.761 203.741 126.43C203.581 127.667 203.882 128.92 204.585 129.95C204.938 130.403 205.411 130.749 205.949 130.948C206.465 131.131 207.008 131.224 207.555 131.221C208.551 131.179 209.539 131.032 210.503 130.781C211.317 130.582 212.152 130.489 212.989 130.504C213.729 130.548 214.345 130.667 214.855 130.667C215.245 130.688 215.635 130.619 215.995 130.464C216.237 130.35 216.342 130.253 216.355 130.262C216.26 130.366 216.147 130.453 216.021 130.517C215.659 130.696 215.259 130.783 214.855 130.772C214.336 130.772 213.707 130.684 212.985 130.658C212.163 130.662 211.344 130.766 210.547 130.97C209.569 131.236 208.564 131.393 207.551 131.437C206.978 131.445 206.407 131.352 205.866 131.164C205.282 130.954 204.77 130.583 204.387 130.095C203.632 129.012 203.306 127.687 203.472 126.377C203.516 125.708 203.626 125.057 203.736 124.362C203.833 123.66 204.028 122.975 204.317 122.329C204.65 121.568 205.256 120.96 206.015 120.626C206.462 120.446 206.929 120.319 207.406 120.248C207.846 120.16 208.317 120.094 208.761 120.032L211.335 119.702H211.375H211.41C212.946 120.514 214.208 121.764 215.035 123.292C215.685 124.46 216.245 125.675 216.712 126.927C216.907 127.393 217.03 127.885 217.077 128.388C217.106 128.764 217.051 129.143 216.919 129.496C216.836 129.716 216.712 129.917 216.553 130.09C216.498 130.176 216.428 130.25 216.347 130.31Z" fill="#263238"/>
<path d="M217.772 144.091C217.736 143.799 217.627 143.521 217.456 143.282C217.285 143.043 217.056 142.851 216.791 142.723C215.973 142.366 215.031 142.859 214.437 143.537C213.843 144.214 213.522 145.068 212.989 145.776C212.522 146.389 211.918 146.885 211.227 147.226C210.535 147.566 209.774 147.742 209.003 147.739C207.129 147.739 205.259 146.634 203.468 147.189C202.856 147.378 202.245 147.858 202.24 148.509C202.28 148.948 202.482 149.356 202.808 149.653C203.702 150.609 204.878 151.253 206.165 151.492C208.391 151.417 210.581 150.905 212.611 149.987C214.961 148.984 216.69 147.743 217.499 145.816C217.748 145.277 217.842 144.68 217.772 144.091Z" fill="#E0E0E0"/>
<path d="M217.464 146.731C217.358 146.885 217.232 147.024 217.09 147.145C216.724 147.5 216.338 147.833 215.933 148.144C213.236 150.212 209.973 151.409 206.579 151.576C206.069 151.608 205.557 151.608 205.048 151.576C204.861 151.575 204.674 151.552 204.493 151.505C204.493 151.452 205.29 151.505 206.566 151.395C209.897 151.122 213.091 149.948 215.806 147.998C216.853 147.242 217.434 146.692 217.464 146.731Z" fill="#263238"/>
<path d="M216.818 136.796C216.822 137.031 216.8 137.266 216.752 137.496C216.69 137.936 216.593 138.587 216.435 139.379C216.253 140.312 215.995 141.229 215.665 142.12C215.262 143.222 214.676 144.249 213.931 145.156C213.178 146.07 212.209 146.781 211.111 147.224C210.211 147.564 209.251 147.714 208.291 147.664C207.646 147.64 207.008 147.529 206.394 147.334C206.179 147.264 206.016 147.198 205.906 147.149C205.796 147.101 205.743 147.07 205.747 147.061C206.577 147.297 207.433 147.433 208.295 147.466C209.227 147.482 210.153 147.313 211.019 146.969C212.071 146.531 212.999 145.84 213.72 144.958C215.287 143.084 215.872 140.862 216.241 139.322C216.426 138.538 216.554 137.9 216.646 137.456C216.681 137.231 216.739 137.01 216.818 136.796Z" fill="#263238"/>
<path d="M202.597 144.496C202.318 144.315 202.081 144.076 201.902 143.796C201.417 143.159 201.063 142.432 200.859 141.658C200.651 140.883 200.594 140.074 200.692 139.278C200.712 138.947 200.799 138.623 200.947 138.327C201.04 138.327 200.635 139.823 201.123 141.583C201.612 143.343 202.681 144.443 202.597 144.496Z" fill="#263238"/>
<path d="M203.275 131.287C203.088 130.74 202.954 130.175 202.874 129.602C202.601 128.224 202.515 126.815 202.619 125.413C202.735 123.996 203.23 122.635 204.054 121.475C204.306 121.128 204.601 120.814 204.934 120.542C205.047 120.432 205.18 120.342 205.325 120.278C204.926 120.693 204.556 121.134 204.216 121.598C203.468 122.756 203.014 124.079 202.896 125.453C202.795 126.832 202.853 128.218 203.068 129.584C203.173 130.147 203.242 130.716 203.275 131.287Z" fill="#263238"/>
<path d="M199.68 74.4656L203.134 89.9888L204.168 114.356L211.692 113.797L212.783 88.9636L210.336 73.0444L199.68 74.4656Z" fill="#CE947A"/>
<path d="M204.969 123.332C204.895 123.367 204.813 123.385 204.731 123.385C204.649 123.384 204.568 123.366 204.494 123.331C204.42 123.295 204.355 123.244 204.303 123.18C204.251 123.117 204.214 123.042 204.194 122.962C203.908 121.898 203.169 119.002 203.187 117.929C203.213 116.578 203.988 111.373 203.988 111.373L211.833 111.426L213.804 118.584C213.804 118.584 213.289 121.524 212.774 121.695C212.447 121.778 212.115 121.843 211.78 121.889L211.564 122.791C211.124 124.168 209.492 123.79 209.492 123.79C209.419 124.055 209.287 124.301 209.104 124.508C208.922 124.714 208.695 124.876 208.44 124.982C208.205 125.066 207.95 125.081 207.707 125.025C207.463 124.97 207.24 124.847 207.063 124.67C207.063 124.67 205.99 125.299 205.519 124.775C205.048 124.252 205.18 123.125 205.18 123.125C205.136 123.216 205.061 123.289 204.969 123.332Z" fill="#CE947A"/>
<path d="M205.198 123.715C205.21 123.635 205.21 123.553 205.198 123.473C205.2 123.254 205.19 123.035 205.167 122.817C205.123 122.267 205.008 121.497 204.881 120.679C204.764 119.973 204.689 119.26 204.656 118.545C204.656 117.999 204.722 117.665 204.7 117.665C204.664 117.737 204.639 117.814 204.626 117.894C204.58 118.109 204.555 118.329 204.551 118.549C204.553 119.272 204.616 119.993 204.74 120.705C204.868 121.537 204.995 122.289 205.066 122.835C205.136 123.38 205.176 123.715 205.198 123.715Z" fill="#A56349"/>
<path d="M207.019 124.678C207.091 124.496 207.133 124.303 207.142 124.106C207.196 123.639 207.209 123.168 207.182 122.698C207.151 122.148 207.098 121.651 207.05 121.299C207.038 121.103 207.003 120.91 206.944 120.723C206.939 121.384 206.968 122.045 207.032 122.703C207.058 123.167 207.058 123.633 207.032 124.098C207.011 124.29 207.007 124.485 207.019 124.678Z" fill="#A56349"/>
<path d="M209.51 123.803C209.629 123.252 209.669 122.688 209.629 122.126C209.635 121.563 209.554 121.002 209.391 120.463C209.351 120.463 209.453 121.211 209.479 122.131C209.505 123.05 209.466 123.798 209.51 123.803Z" fill="#A56349"/>
<path d="M211.564 122.791C211.746 121.937 211.728 121.053 211.511 120.208C211.497 120.639 211.507 121.071 211.542 121.502C211.559 122.21 211.524 122.786 211.564 122.791Z" fill="#A56349"/>
<path d="M209.281 119.39C209.281 119.39 209.325 119.297 209.281 119.148C209.243 118.952 209.141 118.776 208.99 118.646C208.835 118.519 208.641 118.449 208.44 118.448C208.291 118.448 208.203 118.492 208.207 118.51C208.453 118.535 208.688 118.619 208.894 118.756C209.074 118.931 209.207 119.149 209.281 119.39Z" fill="#A56349"/>
<path d="M211.506 118.642C211.546 118.642 211.506 118.347 211.203 118.158C211.126 118.093 211.033 118.05 210.934 118.033C210.835 118.017 210.733 118.028 210.64 118.065C210.64 118.109 210.886 118.118 211.124 118.281C211.361 118.444 211.48 118.655 211.506 118.642Z" fill="#A56349"/>
<path d="M206.68 119.024C206.72 119.024 206.733 118.813 206.544 118.668C206.355 118.523 206.152 118.58 206.166 118.62C206.179 118.659 206.32 118.672 206.456 118.782C206.592 118.892 206.641 119.029 206.68 119.024Z" fill="#A56349"/>
<path d="M204.001 111.373C203.999 111.393 203.999 111.414 204.001 111.434L203.97 111.628C203.939 111.804 203.9 112.068 203.851 112.372C203.75 113.018 203.609 113.964 203.451 115.152C203.376 115.751 203.292 116.402 203.222 117.115C203.174 117.484 203.158 117.856 203.174 118.228C203.206 118.624 203.258 119.017 203.332 119.407C203.477 120.208 203.671 121.048 203.886 121.92C203.944 122.135 203.996 122.36 204.054 122.58C204.084 122.69 204.115 122.8 204.142 122.914C204.168 123.039 204.226 123.156 204.309 123.253C204.398 123.355 204.52 123.423 204.653 123.447C204.787 123.471 204.924 123.449 205.044 123.385C205.078 123.359 205.103 123.321 205.114 123.279C205.126 123.248 205.136 123.215 205.145 123.182C205.145 123.121 205.171 123.064 205.18 123.002C205.196 122.878 205.204 122.753 205.206 122.628C205.206 122.609 205.199 122.591 205.186 122.578C205.173 122.565 205.155 122.558 205.136 122.558C205.117 122.558 205.099 122.565 205.086 122.578C205.073 122.591 205.066 122.609 205.066 122.628C205.058 122.945 205.069 123.263 205.101 123.578C205.126 123.905 205.198 124.227 205.316 124.533C205.381 124.699 205.494 124.842 205.642 124.942C205.798 125.031 205.978 125.069 206.157 125.052C206.5 125.015 206.831 124.906 207.129 124.731H207.037C207.162 124.86 207.311 124.964 207.477 125.035C207.691 125.12 207.923 125.152 208.153 125.129C208.382 125.106 208.603 125.028 208.797 124.903C209.17 124.642 209.44 124.259 209.562 123.82L209.474 123.873C209.915 123.968 210.373 123.933 210.794 123.772C210.997 123.687 211.177 123.558 211.323 123.394C211.469 123.231 211.577 123.036 211.639 122.826C211.71 122.518 211.78 122.219 211.85 121.92L211.798 121.972C211.991 121.946 212.185 121.911 212.374 121.876L212.656 121.818L212.801 121.779C212.854 121.755 212.902 121.72 212.942 121.678C213.064 121.525 213.16 121.352 213.223 121.167C213.294 120.991 213.351 120.815 213.404 120.639C213.592 119.971 213.746 119.294 213.866 118.611V118.584L212.405 113.379C212.229 112.768 212.092 112.284 211.996 111.945C211.947 111.786 211.908 111.659 211.881 111.566C211.872 111.523 211.857 111.482 211.837 111.443C211.843 111.486 211.852 111.529 211.864 111.571C211.89 111.668 211.921 111.791 211.96 111.954C212.048 112.297 212.18 112.781 212.343 113.401C212.682 114.655 213.166 116.446 213.751 118.62V118.593C213.63 119.271 213.474 119.942 213.285 120.604C213.232 120.776 213.175 120.947 213.104 121.119C213.046 121.287 212.96 121.445 212.849 121.585C212.825 121.614 212.795 121.636 212.761 121.651L212.629 121.686L212.352 121.744C212.163 121.779 211.974 121.81 211.78 121.836C211.767 121.839 211.754 121.846 211.744 121.855C211.734 121.864 211.727 121.876 211.723 121.889C211.652 122.188 211.582 122.487 211.507 122.769C211.455 122.964 211.36 123.145 211.227 123.298C211.094 123.451 210.928 123.571 210.742 123.649C210.351 123.795 209.927 123.827 209.518 123.741C209.5 123.739 209.481 123.743 209.465 123.753C209.449 123.762 209.437 123.777 209.43 123.794C209.317 124.197 209.069 124.548 208.726 124.788C208.55 124.902 208.349 124.972 208.14 124.993C207.931 125.014 207.72 124.984 207.525 124.907C207.376 124.847 207.239 124.757 207.125 124.643C207.111 124.634 207.095 124.628 207.079 124.628C207.062 124.628 207.046 124.634 207.032 124.643C206.755 124.807 206.446 124.911 206.126 124.947C205.974 124.963 205.82 124.932 205.686 124.859C205.566 124.772 205.473 124.653 205.418 124.516C205.306 124.222 205.237 123.914 205.211 123.6C205.182 123.292 205.17 122.982 205.176 122.672H205.035C205.033 122.788 205.024 122.904 205.008 123.02C205.008 123.077 205.008 123.138 204.978 123.191C204.947 123.244 204.929 123.301 204.942 123.319C204.847 123.355 204.744 123.366 204.643 123.35C204.541 123.327 204.449 123.273 204.379 123.196C204.309 123.118 204.262 123.022 204.243 122.918C204.216 122.804 204.186 122.694 204.155 122.584C204.098 122.364 204.04 122.144 203.988 121.924C203.768 121.044 203.548 120.221 203.42 119.425C203.345 119.039 203.291 118.65 203.257 118.259C203.241 117.893 203.255 117.527 203.297 117.163C203.363 116.455 203.438 115.799 203.512 115.205C203.662 114.026 203.781 113.08 203.864 112.416C203.908 112.099 203.939 111.848 203.961 111.672C203.961 111.593 203.961 111.527 203.961 111.478C203.961 111.43 204.001 111.373 204.001 111.373Z" fill="#A56349"/>
<path d="M176.078 44.88C178.611 44.8848 181.087 44.1358 183.193 42.7284C183.193 42.7284 181.569 46.6884 176.087 46.3012L176.078 44.88Z" fill="#A56349"/>
<path opacity="0.3" d="M198.144 74.6724L199.679 74.4656L202.482 87.0628L202.328 89.87L203.327 94.6L203.661 102.485C203.661 102.485 199.882 90.6312 199.679 87.802C199.459 84.766 198.144 74.6548 198.144 74.6548" fill="black"/>
<path d="M129.478 198.581C129.478 198.581 129.975 201.705 129.957 202.25L132.157 204.151L137.772 202.897L138.234 198.304L129.478 198.581Z" fill="#F4C3AE"/>
<path d="M137.886 202.206V202.708C137.886 202.708 146.374 205.999 146.484 207.601L129.711 207.715L129.9 202.132C131.148 202.718 132.507 203.028 133.885 203.041C135.263 203.054 136.628 202.769 137.886 202.206Z" fill="#90CAF9"/>
<g opacity="0.6">
<path d="M129.72 207.715L129.764 206.373L145.824 206.752C145.824 206.752 146.572 207.073 146.493 207.601L129.72 207.715Z" fill="white"/>
</g>
<path d="M137.957 202.752C137.957 202.836 137.543 202.875 137.143 203.139C136.742 203.403 136.531 203.755 136.452 203.72C136.373 203.685 136.496 203.214 136.989 202.902C137.481 202.589 137.974 202.677 137.957 202.752Z" fill="#263238"/>
<path d="M139.721 203.469C139.721 203.548 139.386 203.689 139.109 204.037C138.832 204.384 138.757 204.754 138.669 204.75C138.581 204.745 138.533 204.283 138.885 203.87C139.237 203.456 139.716 203.39 139.721 203.469Z" fill="#263238"/>
<path d="M140.733 205.568C140.658 205.568 140.544 205.176 140.733 204.728C140.922 204.279 141.323 204.094 141.358 204.164C141.393 204.235 141.156 204.472 140.993 204.846C140.83 205.22 140.817 205.559 140.733 205.568Z" fill="#263238"/>
<path d="M147.742 198.581C147.742 198.581 148.239 201.705 148.222 202.25L150.422 204.151L156.041 202.897L156.507 198.304L147.742 198.581Z" fill="#F4C3AE"/>
<path d="M156.155 202.206V202.708C156.155 202.708 164.643 205.999 164.753 207.601L147.976 207.715L148.165 202.132C149.413 202.718 150.773 203.028 152.152 203.041C153.531 203.054 154.896 202.769 156.155 202.206Z" fill="#90CAF9"/>
<g opacity="0.6">
<path d="M147.984 207.715L148.033 206.373L164.093 206.752C164.093 206.752 164.841 207.073 164.762 207.601L147.984 207.715Z" fill="white"/>
</g>
<path d="M156.221 202.752C156.221 202.836 155.812 202.875 155.407 203.139C155.002 203.403 154.796 203.755 154.721 203.72C154.646 203.685 154.765 203.214 155.253 202.902C155.742 202.589 156.239 202.677 156.221 202.752Z" fill="#263238"/>
<path d="M157.985 203.469C157.985 203.548 157.651 203.689 157.374 204.037C157.096 204.384 157.022 204.754 156.934 204.75C156.846 204.745 156.797 204.283 157.149 203.87C157.501 203.456 157.985 203.39 157.985 203.469Z" fill="#263238"/>
<path d="M158.998 205.568C158.927 205.568 158.808 205.176 158.998 204.728C159.187 204.279 159.587 204.094 159.622 204.164C159.658 204.235 159.42 204.472 159.257 204.846C159.094 205.22 159.081 205.559 158.998 205.568Z" fill="#263238"/>
<path d="M161.853 120.256H124.981L121.171 137.716L128.787 199.791H140.579L143.277 145.116L146.115 199.791H158.756L164.066 138.402L161.853 120.256Z" fill="#263238"/>
<path d="M133.667 198.924C133.601 198.924 133.442 187.981 133.306 174.491C133.169 161 133.112 150.04 133.161 150.04C133.209 150.04 133.385 160.974 133.517 174.473C133.649 187.972 133.728 198.92 133.667 198.924Z" fill="#455A64"/>
<path d="M152.547 198.713C152.543 198.667 152.543 198.622 152.547 198.576C152.547 198.475 152.569 198.343 152.586 198.176C152.626 197.811 152.679 197.296 152.754 196.64C152.903 195.32 153.106 193.38 153.334 190.995C153.563 188.61 153.774 185.768 154.008 182.604C154.241 179.441 154.382 175.965 154.487 172.313C154.593 168.661 154.606 165.172 154.584 162.004C154.562 158.836 154.474 155.984 154.377 153.591C154.28 151.197 154.188 149.257 154.109 147.919C154.078 147.264 154.052 146.749 154.03 146.379C154.03 146.212 154.03 146.08 154.03 145.979C154.027 145.933 154.027 145.888 154.03 145.842C154.044 145.887 154.051 145.932 154.052 145.979L154.091 146.375C154.118 146.744 154.162 147.255 154.214 147.915C154.32 149.235 154.439 151.188 154.553 153.582C154.668 155.976 154.76 158.831 154.808 162.004C154.857 165.176 154.808 168.661 154.729 172.317C154.65 175.974 154.443 179.458 154.232 182.622C154.021 185.786 153.761 188.628 153.51 191.013C153.26 193.398 153.035 195.325 152.855 196.654C152.762 197.305 152.696 197.815 152.644 198.18C152.644 198.348 152.6 198.48 152.586 198.581C152.578 198.626 152.565 198.67 152.547 198.713Z" fill="#455A64"/>
<path d="M141.903 64.24L127.823 65.0012L126.675 70.3076C126.675 70.3076 130.56 73.4272 130.947 73.5548C131.334 73.6824 140.187 74.9188 140.187 74.9188C140.187 74.9188 149.713 70.4792 149.586 70.5188C149.458 70.5584 141.903 64.24 141.903 64.24Z" fill="#F4C3AE"/>
<path d="M129.64 39.666C128.839 38.8344 127.484 38.9928 126.349 39.226C125.68 39.3218 125.029 39.516 124.417 39.8024C124.112 39.9495 123.843 40.161 123.628 40.4223C123.413 40.6837 123.258 40.9886 123.172 41.316C122.974 42.3236 123.691 43.3224 123.564 44.3432C123.496 44.6986 123.353 45.0352 123.144 45.3299C122.934 45.6246 122.663 45.8704 122.349 46.0504C121.719 46.4076 121.04 46.67 120.334 46.8292C120.681 47.2671 121.115 47.6278 121.609 47.8884C122.103 48.149 122.646 48.3038 123.203 48.3428C123.137 48.708 122.67 48.8136 122.323 48.862C121.975 48.9104 121.487 49.1172 121.54 49.4868C121.591 49.6708 121.71 49.8282 121.874 49.9268C123.825 51.3879 126.229 52.114 128.663 51.9772C129.798 51.9112 131 51.6076 131.743 50.7584C132.487 49.9092 132.623 48.8356 132.623 47.7752C132.602 46.3176 132.271 44.8812 131.651 43.5618C131.031 42.2424 130.137 41.0703 129.028 40.1236" fill="#E0E0E0"/>
<path d="M129.02 40.194C128.845 39.4685 128.839 38.7125 129.001 37.9841C129.164 37.2557 129.492 36.5745 129.96 35.9927C130.427 35.4108 131.022 34.944 131.698 34.6281C132.374 34.3122 133.114 34.1556 133.86 34.1704C134.381 34.2436 134.911 34.2092 135.418 34.0692C135.838 33.8316 136.215 33.5235 136.531 33.1584C137.56 32.2256 138.995 31.9132 140.363 31.6976C142.312 31.3896 144.354 31.2136 146.215 31.8604C148.076 32.5072 149.709 34.1792 149.735 36.1504C149.735 37.0304 149.458 37.8576 149.41 38.72C149.361 39.5824 149.647 40.5724 150.43 40.92C150.936 41.1576 151.596 41.1136 151.957 41.5404C152.089 41.7368 152.157 41.9695 152.15 42.206C152.144 42.4426 152.064 42.6713 151.922 42.8604C151.618 43.2312 151.236 43.5314 150.804 43.7404C151.163 43.837 151.479 44.0487 151.705 44.3429C151.931 44.6372 152.053 44.9975 152.054 45.3684C152.041 45.739 151.945 46.1021 151.775 46.4315C151.604 46.7609 151.363 47.0485 151.068 47.2736C150.475 47.7181 149.792 48.0275 149.066 48.18C145.665 49.0292 142.053 48.1536 138.854 46.7236C135.325 45.1383 132.129 42.8988 129.434 40.1236L129.706 39.8112" fill="#E0E0E0"/>
<path d="M128.148 41.8308C128.258 41.5184 129.178 39.4108 129.508 39.4328C129.741 39.4328 129.196 41.404 129.319 41.6064C130.511 43.5204 130.89 45.8524 130.775 48.1052C130.639 50.2925 130.259 52.4576 129.64 54.56" fill="#E0E0E0"/>
<path d="M129.64 54.56C128.849 52.527 128.237 50.4291 127.81 48.29L129.64 54.56Z" fill="#E0E0E0"/>
<path d="M136.073 72.5604C134.448 72.5726 132.882 71.9483 131.711 70.8209C130.54 69.6936 129.857 68.1527 129.808 66.528L129.201 46.2C128.862 40.7396 131.757 35.992 137.222 35.8072H137.728C140.183 35.8686 142.524 36.8521 144.287 38.5618C146.05 40.2715 147.104 42.5821 147.241 45.034C147.509 49.7684 147.742 55 147.65 57.53C147.456 62.7748 142.194 63.4656 142.194 63.4656C142.194 63.4656 142.194 64.68 142.229 66.22C142.244 67.0417 142.096 67.8582 141.794 68.6225C141.492 69.3868 141.042 70.0838 140.47 70.6732C139.897 71.2626 139.213 71.7328 138.458 72.0568C137.703 72.3807 136.891 72.5518 136.069 72.5604H136.073Z" fill="#F4C3AE"/>
<path d="M142.202 63.5272C139.778 63.4578 137.425 62.6942 135.422 61.3272C135.422 61.3272 136.993 65.1816 142.237 64.8472L142.202 63.5272Z" fill="#CC937F"/>
<path d="M138.524 55.0528C138.64 54.928 138.781 54.8307 138.939 54.7682C139.097 54.7056 139.267 54.6794 139.436 54.6915C139.606 54.7036 139.77 54.7537 139.917 54.838C140.065 54.9224 140.191 55.0388 140.287 55.1787C140.384 55.3186 140.447 55.4784 140.473 55.6462C140.499 55.8139 140.487 55.9854 140.438 56.1479C140.388 56.3104 140.303 56.4596 140.188 56.5846C140.073 56.7097 139.932 56.8072 139.774 56.87C139.481 56.9776 139.162 56.9868 138.863 56.8964C138.633 56.8417 138.427 56.7154 138.274 56.5356C138.18 56.3947 138.124 56.2327 138.109 56.0644C138.095 55.8961 138.122 55.7268 138.19 55.572C138.292 55.3116 138.462 55.0835 138.683 54.912" fill="#CC937F"/>
<path d="M145.921 48.554C145.919 48.7493 145.84 48.936 145.702 49.0742C145.564 49.2123 145.377 49.2909 145.182 49.2932C145.086 49.2985 144.99 49.2846 144.9 49.2524C144.81 49.2201 144.727 49.1701 144.657 49.1053C144.586 49.0405 144.529 48.9622 144.489 48.8751C144.45 48.788 144.428 48.6937 144.425 48.598C144.428 48.403 144.507 48.217 144.645 48.0791C144.783 47.9412 144.969 47.8622 145.164 47.8588C145.26 47.8535 145.355 47.8674 145.446 47.8996C145.536 47.9319 145.619 47.9819 145.689 48.0467C145.76 48.1115 145.816 48.1898 145.856 48.2769C145.896 48.364 145.918 48.4583 145.921 48.554Z" fill="#263238"/>
<path d="M146.083 47.5904C145.986 47.6828 145.427 47.2516 144.622 47.234C143.817 47.2164 143.214 47.6036 143.131 47.5068C143.047 47.41 143.188 47.2868 143.452 47.1064C143.806 46.8728 144.224 46.7545 144.649 46.7676C145.067 46.7761 145.473 46.9179 145.806 47.1724C146.048 47.366 146.127 47.5464 146.083 47.5904Z" fill="#263238"/>
<path d="M138.375 48.554C138.371 48.7497 138.292 48.9364 138.153 49.0745C138.014 49.2125 137.827 49.2909 137.631 49.2932C137.536 49.2979 137.441 49.2836 137.351 49.251C137.261 49.2185 137.179 49.1684 137.109 49.1036C137.039 49.0389 136.983 48.9608 136.943 48.874C136.904 48.7872 136.882 48.6934 136.879 48.598C136.881 48.4027 136.96 48.216 137.098 48.0778C137.236 47.9397 137.423 47.8611 137.618 47.8588C137.714 47.8535 137.809 47.8674 137.9 47.8996C137.99 47.9319 138.073 47.9819 138.143 48.0467C138.214 48.1115 138.271 48.1898 138.31 48.2769C138.35 48.364 138.372 48.4583 138.375 48.554Z" fill="#263238"/>
<path d="M138.322 47.5948C138.23 47.6916 137.671 47.256 136.866 47.2384C136.061 47.2208 135.458 47.6124 135.374 47.5112C135.291 47.41 135.427 47.2912 135.691 47.1108C136.046 46.8777 136.463 46.7594 136.888 46.772C137.307 46.7834 137.713 46.9249 138.049 47.1768C138.291 47.3748 138.371 47.5508 138.322 47.5948Z" fill="#263238"/>
<path d="M140.913 53.6492C141.342 53.5231 141.786 53.4535 142.233 53.4424C142.44 53.4424 142.638 53.3896 142.673 53.2488C142.697 53.0371 142.654 52.8232 142.55 52.6372L141.96 51.04C141.168 48.7916 140.601 46.9392 140.689 46.9084C140.777 46.8776 141.498 48.6684 142.286 50.93C142.479 51.4844 142.66 52.0168 142.831 52.5228C142.958 52.7732 142.989 53.0608 142.919 53.3324C142.888 53.4038 142.841 53.4671 142.782 53.5174C142.722 53.5678 142.652 53.6038 142.576 53.6228C142.462 53.6536 142.343 53.667 142.224 53.6624C141.788 53.7113 141.348 53.7069 140.913 53.6492Z" fill="#263238"/>
<path d="M138.528 54.1464C138.66 54.1464 138.638 55.0264 139.373 55.6556C140.108 56.2848 141.041 56.2232 141.045 56.3464C141.045 56.3992 140.834 56.5092 140.442 56.5136C139.929 56.5064 139.434 56.3196 139.043 55.9856C138.67 55.6655 138.436 55.2125 138.392 54.7228C138.366 54.3576 138.467 54.142 138.528 54.1464Z" fill="#263238"/>
<path d="M138.44 44.44C138.352 44.6556 137.56 44.5324 136.606 44.6248C135.651 44.7172 134.885 44.9548 134.762 44.7568C134.709 44.66 134.846 44.4576 135.162 44.2552C135.578 43.9992 136.049 43.8481 136.535 43.8152C137.02 43.7675 137.509 43.837 137.961 44.0176C138.282 44.1672 138.44 44.3432 138.44 44.44Z" fill="#E0E0E0"/>
<path d="M145.819 45.32C145.674 45.5004 145.124 45.32 144.455 45.2716C143.786 45.2232 143.219 45.364 143.095 45.1704C143.038 45.078 143.131 44.8976 143.386 44.7304C143.721 44.5287 144.109 44.4335 144.499 44.4576C144.892 44.4738 145.271 44.6122 145.581 44.8536C145.81 45.0208 145.885 45.21 145.819 45.32Z" fill="#E0E0E0"/>
<path d="M129.53 50.16C129.442 50.1204 125.953 49.0072 125.98 52.5976C126.006 56.188 129.605 55.418 129.61 55.3124C129.614 55.2068 129.53 50.16 129.53 50.16Z" fill="#F4C3AE"/>
<path d="M128.505 53.9528C128.505 53.9528 128.443 53.9968 128.338 54.0452C128.188 54.1063 128.021 54.1063 127.871 54.0452C127.488 53.9132 127.163 53.3104 127.141 52.6636C127.133 52.3613 127.192 52.0609 127.312 51.7836C127.344 51.6708 127.404 51.5676 127.485 51.4832C127.566 51.3987 127.667 51.3357 127.779 51.2996C127.85 51.2789 127.927 51.2844 127.994 51.315C128.062 51.3457 128.117 51.3995 128.148 51.4668C128.197 51.568 128.175 51.6384 128.192 51.6428C128.21 51.6472 128.272 51.5856 128.241 51.436C128.217 51.348 128.166 51.2695 128.096 51.2116C128.047 51.1733 127.991 51.1457 127.931 51.1306C127.871 51.1154 127.809 51.113 127.748 51.1236C127.601 51.1545 127.465 51.2225 127.351 51.3211C127.238 51.4196 127.152 51.5455 127.101 51.6868C126.951 51.9976 126.88 52.3407 126.894 52.6856C126.921 53.4116 127.295 54.0848 127.818 54.23C127.915 54.2572 128.016 54.2622 128.114 54.2447C128.212 54.2271 128.305 54.1875 128.386 54.1288C128.496 54.0408 128.518 53.9616 128.505 53.9528Z" fill="#CC937F"/>
<path d="M144.944 39.2656C145.52 38.9356 143.624 37.0084 142.194 36.3836C140.02 35.442 136.716 34.8964 134.736 35.5036C132.351 36.2252 130.384 37.4484 129.218 39.6484C128.095 41.8864 127.589 44.3834 127.753 46.882C127.784 47.6388 126.345 48.0744 126.763 48.7124C127.269 49.4868 127.15 49.1216 128.017 50.1952C128.259 50.4988 128.637 50.842 128.897 51.1324C129.574 51.9112 131.268 52.0652 131.634 51.3832C132.388 50.1074 132.802 48.6588 132.835 47.1768C132.866 46.0768 132.888 44.4092 132.597 43.3488C132.488 42.9551 132.439 42.5471 132.452 42.1388C132.453 41.4684 132.649 40.8127 133.015 40.2512C133.113 40.1322 133.22 40.0218 133.336 39.9212C133.765 39.5553 134.281 39.308 134.835 39.2038C135.388 39.0996 135.959 39.1421 136.491 39.3272C138.537 40.0048 140.187 41.1224 142.528 40.1192C142.929 39.9007 143.273 39.5901 143.531 39.2128C143.728 39.0389 143.982 38.9451 144.245 38.95C144.507 38.9548 144.758 39.0581 144.948 39.2392L144.944 39.2656Z" fill="#E0E0E0"/>
<path d="M133.019 40.0664C133.598 39.7436 134.237 39.541 134.896 39.4707C135.555 39.4004 136.222 39.4638 136.856 39.6572C137.925 39.9872 138.849 40.6736 139.879 41.1136C141.036 41.5924 142.298 41.7594 143.539 41.598C144.781 41.4367 145.958 40.9525 146.954 40.194C147.244 40.0062 147.492 39.7595 147.68 39.4699C147.869 39.1804 147.995 38.8545 148.05 38.5132C148.052 38.2247 147.989 37.9394 147.867 37.6782C147.744 37.4171 147.565 37.1867 147.341 37.004C146.892 36.6442 146.379 36.3739 145.828 36.2076C143.303 35.3919 140.62 35.1868 138 35.6092C135.893 35.9084 133.741 36.564 132.223 38.0468C132.014 38.2341 131.848 38.4636 131.735 38.72C131.677 38.8524 131.655 38.9974 131.671 39.1408C131.686 39.2842 131.738 39.4212 131.823 39.5384C131.912 39.6502 132.043 39.722 132.185 39.7385C132.328 39.755 132.471 39.7147 132.584 39.6264" fill="#E0E0E0"/>
<path d="M147.038 48.3384C147.038 48.4 146.845 48.4748 146.598 48.554C146.352 48.6332 146.158 48.6992 146.119 48.6464C146.079 48.5936 146.255 48.4308 146.524 48.3384C146.792 48.246 147.034 48.2768 147.038 48.3384Z" fill="#CC937F"/>
<path d="M147.346 48.906C147.346 48.9676 147.078 48.9808 146.77 48.9852C146.462 48.9896 146.202 48.9852 146.194 48.906C146.185 48.8268 146.44 48.752 146.77 48.752C147.1 48.752 147.355 48.84 147.346 48.906Z" fill="#CC937F"/>
<path d="M134.846 48.576C134.846 48.642 134.489 48.6552 134.058 48.6552C133.627 48.6552 133.275 48.6552 133.271 48.576C133.266 48.4968 133.614 48.422 134.058 48.4264C134.503 48.4308 134.855 48.5144 134.846 48.576Z" fill="#CC937F"/>
<path d="M134.801 49.302C134.801 49.368 134.485 49.3592 134.115 49.3592C133.745 49.3592 133.446 49.3592 133.433 49.3064C133.42 49.2536 133.723 49.1304 134.115 49.1304C134.507 49.1304 134.815 49.2448 134.801 49.302Z" fill="#CC937F"/>
<path d="M138.115 50.4768C138.115 50.4768 138.014 50.6396 137.754 50.7848C137.411 50.9675 137.023 51.0456 136.636 51.0092C136.248 50.9682 135.879 50.8154 135.576 50.5692C135.352 50.3756 135.264 50.2128 135.286 50.1952C135.694 50.4887 136.163 50.6858 136.658 50.7716C137.16 50.7813 137.657 50.6807 138.115 50.4768Z" fill="#CC937F"/>
<path d="M138.48 50.3008C138.506 50.358 138.123 50.556 137.6 50.556C137.444 50.5752 137.285 50.5629 137.134 50.5198C136.983 50.4767 136.842 50.4037 136.72 50.3052C136.72 50.2436 137.125 50.3316 137.6 50.3052C138.075 50.2788 138.44 50.2392 138.48 50.3008Z" fill="#CC937F"/>
<path d="M146.273 49.7992C145.884 50.0462 145.441 50.1974 144.982 50.2402C144.524 50.283 144.061 50.2163 143.633 50.0456C143.633 49.9796 144.231 50.0808 144.953 50.0104C145.674 49.94 146.246 49.72 146.273 49.7992Z" fill="#CC937F"/>
<path d="M145.881 50.0764C145.585 50.4065 145.187 50.6289 144.751 50.7085C144.314 50.7882 143.864 50.7206 143.47 50.5164C143.883 50.5359 144.298 50.527 144.711 50.49C145.109 50.3778 145.5 50.2397 145.881 50.0764Z" fill="#CC937F"/>
<path d="M144.208 43.6832C143.917 43.8 143.61 43.8741 143.298 43.9032C142.554 44.0132 141.801 44.053 141.049 44.022C140.298 43.9926 139.551 43.8909 138.818 43.7184C138.511 43.6705 138.214 43.5724 137.938 43.428C137.938 43.3576 139.329 43.7316 141.067 43.7932C142.805 43.8548 144.195 43.6128 144.208 43.6832Z" fill="#CC937F"/>
<path d="M144.754 43.054C142.833 43.4235 140.859 43.4235 138.938 43.054C138.937 42.988 140.257 43.1112 141.846 43.1112C143.434 43.1112 144.745 42.988 144.754 43.054Z" fill="#CC937F"/>
<path d="M140.663 45.6544C140.597 45.6544 140.579 45.4872 140.57 45.3068C140.561 45.1264 140.57 44.968 140.636 44.9504C140.702 44.9328 140.795 45.0868 140.799 45.298C140.803 45.5092 140.72 45.672 140.663 45.6544Z" fill="#CC937F"/>
<path d="M141.767 45.7996C141.745 45.8568 141.49 45.7996 141.384 45.5004C141.279 45.2012 141.406 44.99 141.463 45.0208C141.521 45.0516 141.516 45.2232 141.595 45.4168C141.675 45.6104 141.798 45.76 141.767 45.7996Z" fill="#CC937F"/>
<path d="M138.41 53.9176C138.41 53.9836 138.155 54.0232 137.93 54.2124C137.706 54.4016 137.605 54.6524 137.543 54.6172C137.481 54.582 137.481 54.2784 137.785 54.032C138.089 53.7856 138.441 53.856 138.41 53.9176Z" fill="#CC937F"/>
<path d="M137.468 53.8516C137.468 53.9132 137.318 53.9484 137.217 54.0716C137.116 54.1948 137.09 54.3268 137.028 54.3488C136.966 54.3708 136.958 54.318 136.944 54.23C136.937 54.1744 136.943 54.1179 136.96 54.0646C136.978 54.0113 137.007 53.9626 137.046 53.922C137.081 53.8785 137.126 53.8433 137.177 53.819C137.228 53.7947 137.284 53.7818 137.34 53.7812C137.428 53.7812 137.472 53.8208 137.468 53.8516Z" fill="#CC937F"/>
<path d="M134.062 67.8964C134.062 67.8964 133.957 67.8964 133.816 67.7732C133.629 67.6011 133.507 67.3693 133.473 67.1176C133.416 66.7545 133.431 66.3838 133.517 66.0264C133.626 65.6261 133.626 65.2035 133.517 64.8032C133.442 64.6096 133.297 64.4292 133.209 64.2004C133.136 63.9789 133.136 63.7399 133.209 63.5184C133.258 63.3534 133.258 63.1774 133.209 63.0124C133.15 62.8665 133.074 62.7278 132.984 62.5988C132.906 62.4963 132.852 62.377 132.828 62.2502C132.803 62.1234 132.809 61.9927 132.843 61.8684C132.918 61.6836 133.041 61.6616 133.041 61.6748C133.041 61.688 132.962 61.7408 132.927 61.8904C132.914 62.0016 132.925 62.1142 132.958 62.221C132.992 62.3278 133.047 62.4265 133.121 62.5108C133.228 62.646 133.318 62.7937 133.389 62.9508C133.45 63.1515 133.45 63.3661 133.389 63.5668C133.329 63.7468 133.329 63.9412 133.389 64.1212C133.459 64.306 133.6 64.482 133.697 64.7196C133.827 65.159 133.827 65.6266 133.697 66.066C133.607 66.3998 133.576 66.7467 133.605 67.0912C133.625 67.3175 133.71 67.5331 133.851 67.7116C133.987 67.8348 134.071 67.8788 134.062 67.8964Z" fill="#CC937F"/>
<path d="M136.342 68.332C136.342 68.332 136.227 68.332 136.069 68.2396C135.861 68.0746 135.708 67.8507 135.629 67.5972C135.346 66.8126 135.148 65.9997 135.039 65.1728C135.017 64.933 135.009 64.692 135.017 64.4512C135.032 64.2388 135.032 64.0256 135.017 63.8132C135.017 63.4172 134.621 63.2808 134.371 63.052C134.247 62.949 134.165 62.8055 134.137 62.6472C134.13 62.585 134.138 62.5221 134.159 62.4633C134.181 62.4045 134.215 62.3515 134.261 62.3084C134.423 62.1632 134.56 62.2512 134.542 62.26C134.525 62.2688 134.428 62.26 134.327 62.37C134.298 62.4053 134.277 62.4464 134.266 62.4904C134.254 62.5344 134.253 62.5804 134.261 62.6252C134.298 62.7469 134.374 62.8533 134.476 62.9288C134.591 63.0256 134.745 63.1004 134.916 63.2192C135.006 63.2869 135.081 63.3721 135.137 63.4696C135.193 63.5672 135.229 63.6751 135.242 63.7868C135.259 64.0109 135.259 64.2359 135.242 64.46C135.238 64.6906 135.246 64.9212 135.268 65.1508C135.379 65.9605 135.552 66.7606 135.783 67.5444C135.837 67.7777 135.951 67.9929 136.113 68.1692C136.241 68.288 136.346 68.3144 136.342 68.332Z" fill="#CC937F"/>
<path d="M137.35 33.5016C137.412 33.458 137.48 33.4226 137.552 33.396C137.69 33.3285 137.892 33.2449 138.159 33.1452C138.917 32.8745 139.704 32.6958 140.504 32.6128C141.695 32.4831 142.899 32.559 144.064 32.8372C144.76 32.9886 145.43 33.2405 146.053 33.5852C146.747 33.9425 147.311 34.508 147.667 35.2025C148.023 35.8969 148.152 36.6854 148.037 37.4572C147.952 38.172 147.702 38.8572 147.307 39.4592C146.945 39.9937 146.472 40.4439 145.921 40.7792C145.446 41.0805 144.926 41.3047 144.381 41.4436C143.599 41.6498 142.786 41.708 141.983 41.6152C141.765 41.5905 141.549 41.5538 141.336 41.5052C141.26 41.4935 141.186 41.4713 141.116 41.4392C141.116 41.4392 141.428 41.4876 141.996 41.5272C142.787 41.5809 143.581 41.5005 144.346 41.2896C144.87 41.1431 145.368 40.9176 145.824 40.6208C146.351 40.2879 146.801 39.847 147.144 39.3272C147.514 38.749 147.749 38.0947 147.83 37.4132C147.935 36.6853 147.81 35.9431 147.474 35.2889C147.139 34.6347 146.608 34.1009 145.956 33.7612C145.351 33.426 144.703 33.1772 144.029 33.022C142.886 32.7389 141.703 32.6496 140.531 32.758C139.74 32.821 138.958 32.9685 138.199 33.198C137.649 33.4004 137.358 33.5236 137.35 33.5016Z" fill="white"/>
<path d="M149.581 35.8248C149.671 36.11 149.681 36.414 149.612 36.7048C149.477 37.4144 149.155 38.0751 148.679 38.6188C148.212 39.1547 147.672 39.6214 147.073 40.0048C146.844 40.1876 146.589 40.3359 146.316 40.4448C146.514 40.2308 146.737 40.0416 146.981 39.8816C147.534 39.4641 148.045 38.994 148.508 38.478C148.952 37.9557 149.271 37.3386 149.44 36.674C149.577 36.1636 149.542 35.8292 149.581 35.8248Z" fill="white"/>
<path d="M136.24 36.4584C135.248 36.7765 134.3 37.2201 133.42 37.7784C132.725 38.28 132.1 38.7992 131.902 39.3096C131.795 39.59 131.765 39.8936 131.814 40.1896C131.814 40.1896 131.744 40.1236 131.704 39.9608C131.651 39.7268 131.666 39.4824 131.748 39.2568C131.946 38.6628 132.575 38.1084 133.288 37.5936C133.923 37.1632 134.623 36.8365 135.36 36.6256C135.641 36.5176 135.939 36.461 136.24 36.4584Z" fill="white"/>
<path d="M132.787 35.7324C132.787 35.7588 132.597 35.926 132.272 36.1944C131.84 36.5269 131.465 36.9283 131.163 37.3824C130.874 37.8348 130.741 38.3696 130.785 38.9048C130.825 39.1275 130.878 39.3478 130.943 39.5648C130.943 39.5648 130.719 39.3756 130.626 38.9312C130.528 38.3511 130.649 37.7552 130.965 37.2592C131.284 36.7876 131.695 36.3863 132.175 36.08C132.355 35.926 132.562 35.808 132.787 35.7324Z" fill="white"/>
<path d="M125.632 42.2048C125.708 41.9371 125.847 41.6913 126.037 41.4876C126.455 40.9583 127.003 40.5458 127.627 40.2899C128.251 40.0341 128.931 39.9434 129.601 40.0268C129.879 40.0372 130.151 40.1158 130.393 40.2556C130.393 40.2908 130.08 40.2116 129.587 40.1896C128.947 40.152 128.307 40.2586 127.714 40.5016C127.121 40.7445 126.59 41.1175 126.16 41.5932C125.825 41.954 125.68 42.24 125.632 42.2048Z" fill="white"/>
<path d="M128.25 44.066C128.133 43.8761 128.077 43.6552 128.088 43.4324C128.062 42.8934 128.219 42.3616 128.533 41.9226C128.846 41.4836 129.299 41.163 129.817 41.0124C130.024 40.929 130.251 40.9121 130.468 40.964C130.272 41.0422 130.073 41.1097 129.87 41.1664C129.406 41.3423 129.005 41.6513 128.717 42.0545C128.429 42.4577 128.267 42.9371 128.25 43.4324C128.261 43.6435 128.261 43.8549 128.25 44.066Z" fill="white"/>
<path d="M150.998 43.8548C150.743 43.9381 150.47 43.9473 150.21 43.8812C149.568 43.7816 148.976 43.4742 148.526 43.0061C148.075 42.538 147.79 41.935 147.715 41.2896C147.661 41.0286 147.679 40.7577 147.768 40.5064C147.808 40.5064 147.768 40.8056 147.874 41.2632C147.987 41.8589 148.271 42.4087 148.691 42.8455C149.111 43.2823 149.65 43.5872 150.241 43.7228C150.698 43.8328 150.993 43.8196 150.998 43.8548Z" fill="white"/>
<path d="M150.936 45.4652C150.274 45.6327 149.576 45.6037 148.93 45.3816C148.258 45.234 147.645 44.8893 147.17 44.3916C147.755 44.6882 148.359 44.9455 148.978 45.1616C149.624 45.3021 150.278 45.4035 150.936 45.4652Z" fill="white"/>
<path d="M145.173 64.196C145.732 64.196 151.667 63.404 155.293 65.7932C158.918 68.1824 168.669 86.68 168.669 86.68C168.669 86.68 171.643 96.5228 167.463 98.472C163.283 100.421 152.235 106.366 152.235 106.366L149.542 96.6152L157.158 93.0952V83.6924L145.173 64.196Z" fill="#455A64"/>
<path d="M157.158 84.502L161.255 84.7264C162.364 84.7878 163.446 85.091 164.426 85.6146C165.406 86.1383 166.259 86.8698 166.926 87.758L169.566 91.3044C169.566 91.3044 170.979 93.1392 170.565 93.9444C170.226 94.6044 169.557 94.5516 168.911 93.9708C168.264 93.39 166.2 90.3584 166.2 90.3584C166.2 90.3584 170.002 95.2248 169.135 96.1224C168.268 97.02 167.296 95.8408 167.296 95.8408C167.296 95.8408 167.877 97.7152 166.715 97.5216C165.553 97.328 164.159 95.5856 164.159 95.5856C164.159 95.5856 164.33 96.6812 163.279 96.5536C162.227 96.426 159.213 91.7752 158.953 91.7752C158.694 91.7752 157.343 91.6476 157.343 91.6476L157.158 84.502Z" fill="#CE947A"/>
<path d="M164.638 88.814C165.212 89.3249 165.735 89.8908 166.2 90.5036C166.721 91.068 167.185 91.6826 167.586 92.3384C167.011 91.8275 166.488 91.2616 166.024 90.6488C165.503 90.0835 165.039 89.469 164.638 88.814Z" fill="#A56349"/>
<path d="M163.433 90.8116C163.666 91.0434 163.876 91.2985 164.057 91.5728C164.423 92.0612 164.937 92.73 165.501 93.4604C166.064 94.1908 166.601 94.842 166.983 95.3172C167.21 95.5576 167.408 95.8233 167.573 96.1092C167.309 95.9092 167.07 95.6788 166.86 95.4228C166.447 94.9828 165.892 94.336 165.32 93.6012C164.748 92.8664 164.26 92.18 163.925 91.6696C163.725 91.4061 163.559 91.1177 163.433 90.8116Z" fill="#A56349"/>
<path d="M162.042 92.884C162.547 93.22 162.978 93.6557 163.309 94.1644C163.705 94.6267 164.005 95.1638 164.189 95.744C164.132 95.7748 163.727 95.084 163.138 94.3008C162.749 93.8474 162.383 93.3745 162.042 92.884Z" fill="#A56349"/>
<path d="M154.531 73.8408C154.491 73.8408 154.557 73.348 154.531 72.5604C154.49 71.5392 154.288 70.531 153.933 69.5728C153.571 68.6175 153.058 67.7262 152.415 66.9328C151.917 66.3256 151.535 66 151.574 65.9692C151.614 65.9384 151.684 66.0264 151.856 66.1672C152.099 66.3699 152.327 66.5905 152.538 66.8272C153.232 67.6105 153.778 68.5141 154.148 69.4936C154.52 70.4775 154.705 71.522 154.694 72.5736C154.691 72.889 154.664 73.2037 154.615 73.5152C154.605 73.6276 154.577 73.7377 154.531 73.8408Z" fill="#263238"/>
<path d="M128.787 70.6288C128.787 70.6288 134.151 73.7088 138.221 72.8288C140.816 72.1814 143.206 70.8924 145.173 69.08L152.371 85.558L148.108 118.558L135.246 120.234L130.983 88.9284L128.787 70.6288Z" fill="#FAFAFA"/>
<path d="M128.386 64.812L125.592 65.7932L120.427 99.4884C120.427 99.4884 116.44 113.52 116.788 119.583C117.136 125.646 120.4 144.426 120.4 144.426L143.967 141.944L142.99 105.072C142.99 105.072 144.688 94.4592 139.655 88.0352C134.621 81.6112 128.386 64.812 128.386 64.812Z" fill="#455A64"/>
<path d="M141.903 64.0684C142.229 64.5348 147.381 84.1148 146.827 88.2376C146.273 92.3604 143.272 100.998 143.272 100.998V141.821L164.066 139.92C164.066 139.92 165.769 125.017 164.066 117.88C162.363 110.744 159.882 102.291 159.882 102.291L158.241 77.374L147.777 64.0684H141.903Z" fill="#455A64"/>
<path d="M165.078 130.803C165.036 130.788 164.996 130.767 164.959 130.742L164.625 130.539C164.326 130.359 163.894 130.099 163.305 129.791C162.605 129.418 161.848 129.163 161.065 129.039C160.579 128.973 160.084 128.992 159.604 129.096C159.071 129.234 158.561 129.45 158.091 129.738C157.594 130.038 157.101 130.403 156.586 130.786L154.976 131.974C153.862 132.788 152.683 133.672 151.416 134.583C150.775 135.079 150.018 135.405 149.216 135.529C148.365 135.552 147.521 135.363 146.761 134.979C145.216 134.279 143.619 133.584 141.952 132.928C141.116 132.603 140.293 132.277 139.47 132.009C138.671 131.725 137.828 131.583 136.98 131.591C136.165 131.637 135.377 131.898 134.696 132.348C134.038 132.781 133.429 133.284 132.879 133.848C131.774 134.922 130.767 136.048 129.517 136.721C129.366 136.807 129.209 136.881 129.046 136.941C128.892 137.016 128.73 137.074 128.562 137.113C128.245 137.218 127.915 137.282 127.581 137.302C126.961 137.339 126.34 137.3 125.729 137.188C123.898 136.84 122.122 136.248 120.449 135.428C119.85 135.155 119.393 134.926 119.085 134.772L118.733 134.596C118.654 134.552 118.614 134.53 118.618 134.526L118.746 134.574L119.102 134.732L120.484 135.348C122.166 136.131 123.94 136.698 125.764 137.034C126.364 137.14 126.974 137.172 127.581 137.13C127.902 137.108 128.219 137.045 128.523 136.941C128.675 136.901 128.823 136.845 128.963 136.774C129.114 136.711 129.261 136.639 129.403 136.558C130.608 135.907 131.603 134.798 132.707 133.703C133.266 133.124 133.886 132.608 134.555 132.163C135.267 131.695 136.09 131.422 136.94 131.371C137.817 131.365 138.689 131.514 139.514 131.811C140.35 132.088 141.173 132.414 142.009 132.735C143.676 133.39 145.287 134.094 146.822 134.794C147.547 135.165 148.353 135.35 149.168 135.331C149.938 135.223 150.668 134.92 151.288 134.451L154.857 131.864L156.472 130.689C156.964 130.315 157.475 129.967 158.003 129.646C158.486 129.35 159.013 129.131 159.565 128.999C160.061 128.895 160.572 128.88 161.074 128.955C161.87 129.089 162.637 129.36 163.34 129.756C163.785 129.996 164.217 130.259 164.634 130.544L164.959 130.764C165.043 130.772 165.082 130.799 165.078 130.803Z" fill="#FAFAFA"/>
<path d="M137.063 99.4796C137.177 99.44 140.763 97.4776 141.67 97.3632C142.576 97.2488 149.625 96.9232 149.625 96.9232L151.508 103.748C151.508 103.748 145.634 106.594 144.728 106.828C143.821 107.061 139.971 108.451 139.329 108.451C138.687 108.451 136.874 107.844 136.874 107.43C136.865 107.321 136.885 107.211 136.931 107.112C136.978 107.013 137.049 106.927 137.138 106.863C137.959 106.893 138.781 106.842 139.593 106.713C140.018 106.562 140.434 106.386 140.838 106.185C140.838 106.185 134.383 107.166 133.93 107.012C133.477 106.858 133.138 105.917 133.138 105.917C133.138 105.917 132.381 105.389 132.307 104.9C132.232 104.412 132.496 104.183 132.909 103.994C133.323 103.805 136.117 102.56 136.949 102.331C137.78 102.102 139.971 101.728 139.971 101.728C139.971 101.728 133.323 102.445 132.931 102.256C132.54 102.067 132.051 101.35 132.742 100.936C133.568 100.406 134.472 100.011 135.422 99.7656C136.157 99.6292 137.063 99.4796 137.063 99.4796Z" fill="#F4C3AE"/>
<path d="M141.789 103.541C141.392 103.753 140.975 103.924 140.544 104.051C139.76 104.328 138.665 104.672 137.433 104.984C136.201 105.296 135.074 105.508 134.256 105.635C133.814 105.725 133.365 105.773 132.914 105.78C133.345 105.645 133.787 105.543 134.234 105.477C135.044 105.31 136.161 105.068 137.389 104.76C138.616 104.452 139.708 104.135 140.504 103.88C140.924 103.736 141.353 103.622 141.789 103.541Z" fill="#CC937F"/>
<path d="M141.169 98.4588C140.523 98.7209 139.85 98.9113 139.162 99.0264C138.492 99.2156 137.803 99.3307 137.107 99.3696C137.753 99.1075 138.426 98.9171 139.114 98.802C139.784 98.6134 140.473 98.4984 141.169 98.4588Z" fill="#CC937F"/>
<path d="M149.766 99.6336C149.678 99.6531 149.588 99.6648 149.498 99.6688C149.262 99.7247 149.035 99.8152 148.825 99.9372C148.497 100.146 148.121 100.266 147.734 100.285C147.294 100.258 146.854 100.012 146.502 100.311C146.326 100.478 146.132 100.625 145.925 100.751C145.703 100.844 145.457 100.867 145.221 100.817C144.781 100.729 144.456 100.562 144.152 100.544C143.92 100.518 143.688 100.584 143.505 100.729C143.382 100.839 143.356 100.94 143.338 100.932C143.32 100.923 143.338 100.817 143.439 100.668C143.531 100.57 143.644 100.494 143.768 100.445C143.893 100.395 144.027 100.374 144.161 100.382C144.529 100.434 144.893 100.509 145.252 100.606C145.446 100.643 145.647 100.622 145.828 100.544C146.02 100.422 146.201 100.283 146.37 100.131C146.475 100.047 146.599 99.988 146.73 99.9592C146.857 99.9372 146.987 99.9372 147.113 99.9592C147.351 99.9944 147.553 100.065 147.747 100.078C148.1 100.065 148.446 99.969 148.754 99.7964C148.983 99.6788 149.233 99.6071 149.489 99.5852C149.674 99.5764 149.771 99.6204 149.766 99.6336Z" fill="#CC937F"/>
<path d="M149.837 101.033C149.65 101.28 149.384 101.457 149.084 101.534C148.767 101.646 148.428 101.68 148.094 101.636C147.918 101.598 147.738 101.583 147.558 101.592C147.472 101.607 147.391 101.641 147.321 101.692C147.251 101.743 147.193 101.81 147.153 101.886C147.03 102.082 146.841 102.228 146.62 102.296C146.419 102.339 146.21 102.339 146.009 102.296C145.703 102.218 145.391 102.171 145.076 102.155C144.874 102.161 144.682 102.241 144.535 102.379C144.438 102.485 144.416 102.568 144.394 102.564C144.372 102.56 144.372 102.467 144.464 102.326C144.535 102.232 144.625 102.154 144.728 102.096C144.831 102.039 144.945 102.003 145.063 101.992C145.391 101.983 145.719 102.015 146.04 102.089C146.213 102.129 146.394 102.117 146.56 102.052C146.725 101.988 146.868 101.875 146.968 101.728C147.033 101.635 147.11 101.551 147.197 101.477C147.294 101.404 147.41 101.359 147.531 101.345C147.731 101.338 147.931 101.357 148.125 101.402C148.43 101.454 148.742 101.439 149.04 101.358C149.313 101.269 149.579 101.16 149.837 101.033Z" fill="#CC937F"/>
<path d="M130.112 103.963C129.952 103.991 129.789 103.999 129.628 103.985C129.437 103.986 129.246 103.977 129.056 103.959C128.836 103.937 128.58 103.924 128.303 103.875C127.653 103.773 127.01 103.626 126.38 103.435C125.61 103.197 124.855 102.912 124.119 102.582C122.793 101.97 121.52 101.25 120.313 100.43C119.846 100.118 119.481 99.858 119.23 99.6688C119.093 99.5807 118.968 99.4757 118.856 99.3564C119.013 99.4152 119.161 99.4952 119.296 99.594L120.401 100.32C121.626 101.096 122.9 101.791 124.216 102.401C124.941 102.734 125.685 103.028 126.442 103.281C127.061 103.477 127.691 103.633 128.33 103.748C129.421 103.91 130.116 103.919 130.112 103.963Z" fill="#263238"/>
<path d="M134.652 109.806C134.403 109.777 134.158 109.727 133.917 109.657C133.63 109.597 133.346 109.519 133.068 109.424C132.738 109.322 132.36 109.217 131.959 109.058C131.007 108.709 130.077 108.302 129.174 107.84C128.074 107.263 127.008 106.626 125.98 105.93C124.123 104.647 122.376 103.212 120.757 101.64C120.136 101.042 119.648 100.54 119.322 100.184C119.145 100.008 118.982 99.8177 118.834 99.616C119.032 99.7682 119.217 99.9359 119.388 100.118C119.732 100.456 120.238 100.94 120.871 101.521C122.512 103.051 124.262 104.46 126.107 105.736C127.128 106.427 128.184 107.064 129.271 107.646C130.161 108.116 131.078 108.535 132.016 108.9C132.412 109.067 132.782 109.186 133.103 109.3C133.424 109.415 133.706 109.503 133.939 109.569C134.182 109.631 134.42 109.71 134.652 109.806Z" fill="#263238"/>
<path d="M159.209 92.0744C158.769 92.3382 158.31 92.5691 157.836 92.7652C156.956 93.1656 155.772 93.7024 154.439 94.27C153.106 94.8376 151.892 95.3348 151.003 95.6692C150.563 95.8364 150.193 95.9684 149.942 96.052C149.815 96.1081 149.68 96.1437 149.542 96.1576C149.993 95.9136 150.461 95.7004 150.941 95.5196L154.351 94.0588L157.77 92.6156C158.235 92.399 158.716 92.2181 159.209 92.0744Z" fill="#263238"/>
<path d="M150.373 73.612C150.373 73.612 150.435 73.6604 150.531 73.766L150.945 74.2368C151.306 74.6372 151.825 75.2092 152.529 75.8912C153.233 76.5732 154.047 77.3696 154.94 78.2936C155.925 79.2874 156.793 80.3901 157.527 81.5804C158.246 82.7963 158.717 84.142 158.913 85.5404C159.081 86.8208 159.133 87.9736 159.177 88.9416C159.221 89.9096 159.23 90.7016 159.235 91.2384C159.235 91.4892 159.235 91.6784 159.235 91.8632C159.24 91.9372 159.232 92.0116 159.213 92.0832C159.195 92.0111 159.187 91.9373 159.186 91.8632C159.186 91.696 159.173 91.4892 159.147 91.2428C159.116 90.6664 159.072 89.892 159.019 88.9504C158.966 88.0088 158.887 86.834 158.707 85.5712C158.503 84.2069 158.037 82.8949 157.334 81.708C156.61 80.5316 155.757 79.4396 154.791 78.452C153.911 77.5192 153.083 76.7184 152.415 76.0144C151.746 75.3104 151.222 74.7208 150.879 74.3028L150.501 73.8056C150.45 73.747 150.407 73.6819 150.373 73.612Z" fill="#263238"/>
<path d="M167.04 98.6568C166.831 98.8003 166.612 98.9296 166.385 99.044L164.554 100.038C163.006 100.866 160.858 101.996 158.482 103.228C156.04 104.5 153.832 105.631 152.265 106.418L152.177 106.467L152.151 106.37C151.948 105.582 151.781 104.931 151.658 104.438C151.588 104.207 151.536 103.97 151.504 103.73C151.603 103.952 151.682 104.181 151.742 104.416C151.882 104.905 152.076 105.547 152.305 106.33L152.19 106.278C153.739 105.45 155.935 104.293 158.377 103.026C160.819 101.759 162.913 100.685 164.48 99.8932L166.341 98.9648C166.565 98.8422 166.799 98.7391 167.04 98.6568Z" fill="#263238"/>
<path d="M143.856 107.118C143.867 107.237 143.867 107.356 143.856 107.474C143.856 107.725 143.812 108.064 143.777 108.486C143.694 109.366 143.632 110.638 143.553 112.213C143.412 115.359 143.372 119.693 143.447 124.533C143.522 129.373 143.672 133.698 143.799 136.853C143.861 138.411 143.914 139.682 143.949 140.584C143.949 141.024 143.975 141.35 143.984 141.601C143.996 141.719 143.996 141.839 143.984 141.957C143.96 141.841 143.945 141.724 143.94 141.605C143.94 141.35 143.892 141.016 143.861 140.593C143.799 139.713 143.72 138.437 143.636 136.862C143.469 133.712 143.289 129.356 143.218 124.542C143.148 119.728 143.218 115.368 143.39 112.222C143.491 110.647 143.575 109.371 143.689 108.495C143.738 108.055 143.777 107.738 143.808 107.488C143.813 107.363 143.829 107.239 143.856 107.118Z" fill="#263238"/>
<path d="M125.592 65.7932C125.592 65.7932 117.818 69.1108 115.42 74.3688C113.022 79.6268 108.102 96.3204 107.988 99.4048C107.874 102.489 113.589 112.094 113.589 112.094L122.622 106.374L120.906 102.146L123.648 83.9696L125.592 65.7932Z" fill="#455A64"/>
<path d="M121.883 206.914C121.739 206.914 121.596 206.886 121.463 206.831C121.33 206.775 121.209 206.694 121.107 206.592C121.005 206.49 120.924 206.368 120.87 206.235C120.815 206.102 120.787 205.959 120.788 205.814C120.788 204.934 120.924 117.071 120.884 115.65C120.801 112.622 118.957 111.25 118.878 111.175C118.651 111.002 118.5 110.747 118.457 110.465C118.414 110.182 118.483 109.894 118.648 109.661C118.814 109.429 119.064 109.27 119.345 109.218C119.626 109.166 119.916 109.226 120.154 109.384C120.268 109.468 122.97 111.421 123.084 115.588C123.124 117.04 122.992 202.193 122.988 205.814C122.986 206.107 122.87 206.386 122.663 206.592C122.456 206.799 122.175 206.914 121.883 206.914Z" fill="#263238"/>
<path d="M115.639 122.184C115.348 122.181 115.069 122.064 114.864 121.857C114.659 121.65 114.544 121.371 114.544 121.079C114.544 117.814 114.544 112.856 114.544 112.565C114.534 112.422 114.552 112.278 114.598 112.142C114.643 112.006 114.715 111.881 114.81 111.773C114.904 111.665 115.019 111.576 115.148 111.513C115.277 111.45 115.417 111.413 115.56 111.404C115.854 111.388 116.141 111.488 116.362 111.682C116.582 111.876 116.718 112.149 116.739 112.442C116.739 112.49 116.739 112.644 116.739 121.084C116.739 121.375 116.623 121.655 116.417 121.861C116.211 122.068 115.931 122.184 115.639 122.184Z" fill="#263238"/>
<path d="M117.32 106.555L115.19 108.42C114.658 108.887 113.989 113.014 113.989 113.014C113.989 113.014 116.321 115.509 117.32 115.61C117.968 115.645 118.606 115.444 119.115 115.042C119.115 115.042 120.114 115.61 120.717 115.113C121.32 114.616 119.881 111.382 119.881 111.382C119.881 111.382 119.344 109.82 120.862 109.916L121.513 111.087L123.146 113.881C123.146 113.881 124.144 113.744 124.312 113.247C124.479 112.75 123.872 111.087 123.872 111.087C124.059 110.799 124.182 110.475 124.234 110.136C124.286 109.797 124.264 109.45 124.171 109.12C123.806 108.152 123.207 106.388 121.443 105.992C119.678 105.596 117.32 106.555 117.32 106.555Z" fill="#F4C3AE"/>
<path d="M119.036 114.642C119.006 114.664 118.737 114.312 118.244 113.797C117.6 113.134 116.884 112.544 116.11 112.037C115.879 111.877 115.681 111.672 115.53 111.434C115.398 111.194 115.35 110.917 115.393 110.647C115.475 110.215 115.673 109.813 115.965 109.485C116.198 109.204 116.405 108.992 116.511 108.834C116.616 108.676 116.696 108.588 116.709 108.596C116.569 108.961 116.362 109.295 116.097 109.582C115.842 109.897 115.672 110.273 115.604 110.673C115.571 110.896 115.613 111.124 115.723 111.32C115.86 111.531 116.038 111.712 116.247 111.852C117.032 112.372 117.744 112.995 118.363 113.705C118.635 113.981 118.862 114.297 119.036 114.642Z" fill="#CC937F"/>
<path d="M121.989 109.402C122.038 109.446 121.774 109.776 121.664 110.255C121.554 110.735 121.62 111.135 121.558 111.166C121.496 111.197 121.303 110.752 121.439 110.202C121.576 109.652 121.95 109.353 121.989 109.402Z" fill="#CC937F"/>
<path d="M110.091 97.812C110.299 97.7951 110.508 97.7951 110.716 97.812C110.918 97.812 111.156 97.812 111.45 97.812L112.418 97.9352C112.779 97.9836 113.158 98.098 113.576 98.1904C113.782 98.2432 113.985 98.3268 114.2 98.4016C114.424 98.4705 114.643 98.5543 114.856 98.6524C115.811 99.0753 116.7 99.634 117.496 100.311C118.284 100.987 119.009 101.734 119.661 102.542C120.268 103.277 120.778 103.963 121.214 104.531C121.65 105.098 122.006 105.565 122.257 105.851C122.397 106.007 122.524 106.175 122.635 106.352C122.474 106.221 122.326 106.074 122.195 105.912C121.922 105.613 121.544 105.169 121.095 104.592C120.646 104.016 120.114 103.36 119.502 102.639C118.85 101.846 118.132 101.11 117.355 100.439C116.58 99.7742 115.715 99.2218 114.786 98.7976C114.58 98.7001 114.368 98.6149 114.152 98.5424C113.941 98.4676 113.743 98.3796 113.54 98.3224C113.131 98.2256 112.762 98.1068 112.41 98.0452L111.455 97.8912C111.173 97.8604 110.931 97.8516 110.729 97.834C110.516 97.8497 110.302 97.8424 110.091 97.812Z" fill="#263238"/>
<path d="M121.989 82.2316C121.973 82.4918 121.94 82.7505 121.888 83.006C121.809 83.4988 121.686 84.2116 121.527 85.0916C121.184 86.8868 120.726 89.298 120.207 91.96C119.688 94.622 119.296 97.0772 119.041 98.8504C118.918 99.704 118.817 100.412 118.742 100.945C118.718 101.204 118.676 101.462 118.614 101.715C118.607 101.455 118.62 101.194 118.654 100.936C118.694 100.434 118.773 99.7172 118.878 98.8284C119.094 97.0684 119.477 94.6044 119.983 91.916C120.489 89.2276 120.999 86.8164 121.36 85.0608L121.8 82.9884C121.842 82.7314 121.905 82.4783 121.989 82.2316Z" fill="#263238"/>
<path d="M124.132 207.715H120.005L120.77 204.433H123.212L124.132 207.715Z" fill="#455A64"/>
</svg>
